<?xml version="1.0" encoding="UTF-8"?>
<svg version="1.1" xmlns="http://www.w3.org/2000/svg" width="500" height="500">
<path d="M0 0 C11.70315546 10.28295687 24.11225567 23.73699342 25.50146484 40.03955078 C25.51587729 43.36286121 25.43405165 46.66409516 25.29296875 49.984375 C24.93793219 59.15173688 24.6365802 67.08076076 30.3515625 74.6796875 C31.11597656 75.44023437 31.88039063 76.20078125 32.66796875 76.984375 C36.27910121 80.79022538 39.22330113 83.98482507 41.23046875 88.859375 C40.68728162 92.19609595 39.60187277 93.48797098 37.23046875 95.859375 C33.76279127 98.17115999 30.17067703 99.79156468 26.33984375 101.41796875 C24.00997089 102.69908824 24.00997089 102.69908824 23.40625 105.3125 C23.19946923 108.30852367 23.61689936 110.9278768 24.23046875 113.859375 C21.75546875 115.839375 21.75546875 115.839375 19.23046875 117.859375 C19.47796875 118.395625 19.72546875 118.931875 19.98046875 119.484375 C20.23046875 121.859375 20.23046875 121.859375 18.23046875 124.546875 C15.51199904 129.04934045 16.27258946 131.86653516 17.23046875 136.859375 C18.00788771 140.92416554 18.48738806 144.07350416 17.16796875 148.109375 C13.639954 153.11687981 9.79185674 154.96304034 3.91796875 156.234375 C-2.21128667 157.16374831 -7.86090016 156.44221766 -13.89379883 155.23388672 C-16.25292825 154.77511996 -16.25292825 154.77511996 -19.76953125 154.859375 C-23.66847904 157.83781137 -26.31460395 161.04517356 -27.10546875 165.9375 C-27.20994821 171.74655787 -26.04157462 176.02244132 -22.76953125 180.859375 C-22.20878906 181.34664062 -21.64804687 181.83390625 -21.0703125 182.3359375 C-19.76953125 183.859375 -19.76953125 183.859375 -19.80859375 185.8828125 C-21.81699585 190.013916 -26.69596755 191.28107747 -30.76953125 192.859375 C-44.80500685 197.19104977 -59.7811528 194.60331995 -72.578125 187.91015625 C-78.65405607 184.61414954 -84.5251031 181.06467117 -90.26635742 177.21728516 C-104.94265382 167.41946244 -117.59997329 166.93253082 -134.76953125 168.859375 C-135.57220971 166.59093587 -135.9811298 165.3729304 -135.046875 163.10546875 C-130.22509173 156.59676422 -124.00225209 152.04309381 -117.57910156 147.2265625 C-115.91517742 145.96941528 -114.27469466 144.68139904 -112.63671875 143.390625 C-106.29287797 138.39343073 -99.76961105 133.76163197 -93.08203125 129.234375 C-76.16368339 118.66288457 -76.16368339 118.66288457 -66.76953125 101.859375 C-66.20941127 97.57661149 -66.41370255 94.64838646 -68.20703125 90.671875 C-71.93595724 86.57915136 -76.32876298 83.04108508 -82.0625 82.73828125 C-84.83108594 83.05598783 -87.2703966 83.60980768 -89.76953125 84.859375 C-98.59674507 85.29350027 -98.59674507 85.29350027 -102.76953125 82.859375 C-106.57083527 79.16366276 -107.6783695 76.14675624 -107.76953125 70.859375 C-106.36516661 65.85632597 -104.16745216 62.42135429 -100.1875 59.1796875 C-97.04321357 57.46277504 -93.79953943 56.80145786 -90.33203125 56.046875 C-83.9099562 54.61433084 -80.21460939 52.46886355 -76.2265625 47.16015625 C-73.33809795 42.59901518 -71.65684217 39.60605575 -72.01953125 33.984375 C-72.44579489 31.00892401 -72.44579489 31.00892401 -73.76953125 29.859375 C-78.12562699 29.37536436 -80.12942349 30.60597496 -83.76953125 32.859375 C-90.24280707 35.27098756 -97.23911224 36.25683253 -103.76953125 33.671875 C-106.74080753 30.97915587 -107.58773424 28.90872309 -107.94140625 24.921875 C-107.78046968 17.41150174 -103.61867396 12.2848165 -98.76953125 6.859375 C-73.0849484 -17.60881595 -28.37326665 -21.93025405 0 0 Z M-99.76953125 18.859375 C-100.44626572 22.26258434 -100.44626572 22.26258434 -100.76953125 25.859375 C-98.94749544 28.08904247 -98.94749544 28.08904247 -96.33203125 28.171875 C-93.7658311 28.04480156 -93.7658311 28.04480156 -91.89453125 26.671875 C-90.54430336 24.85205052 -90.54430336 24.85205052 -90.76953125 22.296875 C-91.56311818 19.656226 -91.56311818 19.656226 -94.14453125 18.484375 C-96.85559394 17.5950832 -96.85559394 17.5950832 -99.76953125 18.859375 Z M-95.58203125 68.046875 C-97.02145832 69.8563228 -97.02145832 69.8563228 -96.64453125 72.421875 C-95.92563957 75.1855361 -95.92563957 75.1855361 -92.76953125 76.859375 C-90.0748876 76.43160894 -90.0748876 76.43160894 -87.76953125 74.859375 C-86.60742906 72.46586005 -86.60742906 72.46586005 -86.76953125 69.859375 C-87.85286458 67.94270833 -87.85286458 67.94270833 -89.76953125 66.859375 C-93.57303499 66.49402416 -93.57303499 66.49402416 -95.58203125 68.046875 Z " fill="#1559C5" transform="translate(308.76953125,159.140625)"/>
<path d="M0 0 C11.70315546 10.28295687 24.11225567 23.73699342 25.50146484 40.03955078 C25.51587729 43.36286121 25.43405165 46.66409516 25.29296875 49.984375 C24.93793219 59.15173688 24.6365802 67.08076076 30.3515625 74.6796875 C31.11597656 75.44023437 31.88039063 76.20078125 32.66796875 76.984375 C36.27910121 80.79022538 39.22330113 83.98482507 41.23046875 88.859375 C40.69026181 92.17778909 39.50468643 93.5497744 37.29296875 96.046875 C30.91040062 99.82431328 22.54051864 100.6027699 15.23046875 99.859375 C9.62257253 97.22036501 6.95992898 93.22794843 4.23046875 87.859375 C2.87972528 84.08245757 1.86874957 80.23848499 0.85546875 76.359375 C-3.61054435 60.32787745 -8.78894536 42.54558076 -23.6796875 32.98046875 C-37.53857296 25.54588907 -51.30619559 21.98429116 -66.89453125 26.171875 C-68.52982178 26.70371721 -70.15651533 27.26337929 -71.76953125 27.859375 C-72.44757813 28.09914062 -73.125625 28.33890625 -73.82421875 28.5859375 C-76.69758584 29.63604354 -79.53173433 30.76023308 -82.35546875 31.9375 C-89.57704661 34.80994834 -96.29336727 36.63118991 -103.76953125 33.671875 C-106.74080753 30.97915587 -107.58773424 28.90872309 -107.94140625 24.921875 C-107.78046968 17.41150174 -103.61867396 12.2848165 -98.76953125 6.859375 C-73.0849484 -17.60881595 -28.37326665 -21.93025405 0 0 Z M-99.76953125 18.859375 C-100.44626572 22.26258434 -100.44626572 22.26258434 -100.76953125 25.859375 C-98.94749544 28.08904247 -98.94749544 28.08904247 -96.33203125 28.171875 C-93.7658311 28.04480156 -93.7658311 28.04480156 -91.89453125 26.671875 C-90.54430336 24.85205052 -90.54430336 24.85205052 -90.76953125 22.296875 C-91.56311818 19.656226 -91.56311818 19.656226 -94.14453125 18.484375 C-96.85559394 17.5950832 -96.85559394 17.5950832 -99.76953125 18.859375 Z " fill="#208FE2" transform="translate(308.76953125,159.140625)"/>
<path d="M0 0 C15.90917933 -1.13187837 15.90917933 -1.13187837 22.14453125 3.9453125 C28.96356777 11.49649821 31.09257389 21.21359451 33.26464844 30.88134766 C36.17794061 43.8030441 42.00606137 55.18713741 53 63 C62.87403164 68.96257949 76.43485973 72.65195644 88 72 C91.36892491 70.76904667 93.42568691 69.61260063 95.875 67 C97.60102422 62.39726875 97.22984075 57.86070615 97 53 C99.39501886 56.59252829 100.04840113 59.74876716 100 64 C98.77702502 67.74086463 97.44562656 69.58865241 94.5625 72.25 C85.74141214 76.58316597 77.28075718 76.25824672 67.87573242 74.37451172 C65.516603 73.91574496 65.516603 73.91574496 62 74 C58.10105221 76.97843637 55.4549273 80.18579856 54.6640625 85.078125 C54.55958304 90.88718287 55.72795663 95.16306632 59 100 C59.56074219 100.48726563 60.12148438 100.97453125 60.69921875 101.4765625 C62 103 62 103 61.9609375 105.0234375 C59.9525354 109.154541 55.0735637 110.42170247 51 112 C36.9645244 116.33167477 21.98837845 113.74394495 9.19140625 107.05078125 C3.11547518 103.75477454 -2.75557185 100.20529617 -8.49682617 96.35791016 C-23.17312257 86.56008744 -35.83044204 86.07315582 -53 88 C-53.80267846 85.73156087 -54.21159855 84.5135554 -53.27734375 82.24609375 C-48.45556048 75.73738922 -42.23272084 71.18371881 -35.80957031 66.3671875 C-34.14564617 65.11004028 -32.50516341 63.82202404 -30.8671875 62.53125 C-24.52334672 57.53405573 -18.0000798 52.90225697 -11.3125 48.375 C5.60584786 37.80350957 5.60584786 37.80350957 15 21 C15.54901245 16.80216637 15.33983274 13.80912557 13.6875 9.875 C9.78903869 5.70455301 5.09351632 3.47650276 0 1 C0 0.67 0 0.34 0 0 Z " fill="#0F48CA" transform="translate(227,240)"/>
<path d="M0 0 C15.90917933 -1.13187837 15.90917933 -1.13187837 22.14453125 3.9453125 C28.96356777 11.49649821 31.09257389 21.21359451 33.26464844 30.88134766 C36.17794061 43.8030441 42.00606137 55.18713741 53 63 C62.87403164 68.96257949 76.43485973 72.65195644 88 72 C91.36892491 70.76904667 93.42568691 69.61260063 95.875 67 C97.60102422 62.39726875 97.22984075 57.86070615 97 53 C99.39501886 56.59252829 100.04840113 59.74876716 100 64 C98.77702502 67.74086463 97.44562656 69.58865241 94.5625 72.25 C85.74141214 76.58316597 77.28075718 76.25824672 67.87573242 74.37451172 C65.516603 73.91574496 65.516603 73.91574496 62 74 C58.10105221 76.97843637 55.4549273 80.18579856 54.6640625 85.078125 C54.55958304 90.88718287 55.72795663 95.16306632 59 100 C59.56074219 100.48726563 60.12148438 100.97453125 60.69921875 101.4765625 C62 103 62 103 61.9609375 105.0234375 C59.9525354 109.154541 55.0735637 110.42170247 51 112 C37.8294306 116.06474456 23.10746325 114.17131608 10.94335938 107.94775391 C-1.90558385 101.09441615 -1.90558385 101.09441615 -4 99 C-4 90.11356293 2.04977587 82.81965458 7.875 76.5625 C13.80501559 70.93244629 21.31351077 67.87921864 29.484375 67.8671875 C30.33773437 67.86589844 31.19109375 67.86460937 32.0703125 67.86328125 C32.95460938 67.86714844 33.83890625 67.87101562 34.75 67.875 C35.61882812 67.87113281 36.48765625 67.86726563 37.3828125 67.86328125 C42.67896248 67.87123343 47.75943517 68.23219632 53 69 C52.35933594 68.5875 51.71867187 68.175 51.05859375 67.75 C36.13315948 57.78488144 30.99885634 44.78957043 25.62304688 28.24316406 C22.61902376 19.22028889 19.14090618 10.86122833 10.546875 6.078125 C9.28527239 5.46046539 8.019521 4.85121624 6.75 4.25 C6.1003125 3.93417969 5.450625 3.61835938 4.78125 3.29296875 C3.19106299 2.52126035 1.59600771 1.75959725 0 1 C0 0.67 0 0.34 0 0 Z " fill="#0A17A5" transform="translate(227,240)"/>
<path d="M0 0 C9.33790905 7.18021745 13.86297676 18.83428996 18.07421875 29.484375 C18.54130249 30.66447144 18.54130249 30.66447144 19.01782227 31.8684082 C19.74832191 33.80008917 20.3885102 35.7654585 21.01171875 37.734375 C20.51671875 38.724375 20.51671875 38.724375 20.01171875 39.734375 C18.52671875 38.744375 18.52671875 38.744375 17.01171875 37.734375 C16.82609375 36.1565625 16.82609375 36.1565625 16.63671875 34.546875 C15.94352068 30.31836678 14.69306012 28.46170129 12.0703125 25.21484375 C11.01171875 23.734375 11.01171875 23.734375 11.01171875 21.734375 C10.35171875 21.734375 9.69171875 21.734375 9.01171875 21.734375 C5.01171875 17.26378676 5.01171875 17.26378676 5.01171875 14.734375 C3.69171875 14.404375 2.37171875 14.074375 1.01171875 13.734375 C1.01171875 13.074375 1.01171875 12.414375 1.01171875 11.734375 C-0.30828125 11.074375 -1.62828125 10.414375 -2.98828125 9.734375 C-2.98828125 9.074375 -2.98828125 8.414375 -2.98828125 7.734375 C-6.91933462 6.58781777 -10.92947809 6.15477834 -14.98828125 5.734375 C-16.14328125 5.569375 -17.29828125 5.404375 -18.48828125 5.234375 C-22.89115438 5.86335688 -25.09688374 7.23465063 -28.3203125 10.24609375 C-31.59759628 15.13515644 -31.66955789 20.98938645 -31.98828125 26.734375 C-31.26511719 26.9715625 -30.54195312 27.20875 -29.796875 27.453125 C-20.08953857 31.88150657 -13.45090396 42.50921144 -9.65625 52.1015625 C-7.30104589 58.83275009 -5.49380256 65.59354337 -3.92578125 72.546875 C-0.74409419 86.57358312 4.73447575 98.35761767 17.01171875 106.734375 C21.05615604 108.97868087 25.22009421 110.9660913 29.40234375 112.9375 C32.1968593 114.27326127 34.62127428 115.73823065 37.01171875 117.734375 C24.8252208 119.05262598 10.56933451 114.38378623 1.01171875 106.734375 C-4.08099071 101.85651422 -8.01649696 97.15479149 -10.98828125 90.734375 C-11.31570313 90.05117188 -11.643125 89.36796875 -11.98046875 88.6640625 C-14.83263973 82.02582386 -16.45462594 75.17308907 -17.97412109 68.13037109 C-19.67678966 60.71730342 -22.31080441 53.59503192 -28.36328125 48.671875 C-34.75783905 45.1585153 -43.57227484 45.50265213 -50.453125 47.421875 C-52.30203574 48.18340655 -54.14537891 48.95841612 -55.98828125 49.734375 C-60.60068617 50.33260045 -64.91548914 50.1101704 -68.98828125 47.734375 C-72.78958527 44.03866276 -73.8971195 41.02175624 -73.98828125 35.734375 C-72.58391661 30.73132597 -70.38620216 27.29635429 -66.40625 24.0546875 C-63.26196357 22.33777504 -60.01828943 21.67645786 -56.55078125 20.921875 C-50.10101982 19.48315496 -46.46459564 17.29302041 -42.390625 12.0390625 C-40.79048551 9.61078353 -40.79048551 9.61078353 -39.80078125 6.046875 C-36.52891113 0.0672503 -29.21285456 -1.94990423 -22.90625 -3.9140625 C-14.60659154 -5.43538482 -7.09989389 -4.51938236 0 0 Z M-61.80078125 32.921875 C-63.24020832 34.7313228 -63.24020832 34.7313228 -62.86328125 37.296875 C-62.14438957 40.0605361 -62.14438957 40.0605361 -58.98828125 41.734375 C-56.2936376 41.30660894 -56.2936376 41.30660894 -53.98828125 39.734375 C-52.82617906 37.34086005 -52.82617906 37.34086005 -52.98828125 34.734375 C-54.07161458 32.81770833 -54.07161458 32.81770833 -55.98828125 31.734375 C-59.79178499 31.36902416 -59.79178499 31.36902416 -61.80078125 32.921875 Z " fill="#23A9F7" transform="translate(274.98828125,194.265625)"/>
<path d="M0 0 C11.56006815 10.15723346 21.26918106 21.6899733 25.23046875 36.859375 C25.33203125 39.68359375 25.33203125 39.68359375 25.23046875 41.859375 C24.24046875 41.859375 23.25046875 41.859375 22.23046875 41.859375 C21.74578125 40.92996094 21.26109375 40.00054687 20.76171875 39.04296875 C14.62306683 27.1301052 14.62306683 27.1301052 3.73828125 20.0390625 C-0.17823061 19.23305571 -4.02017163 18.89458587 -8.01171875 18.70703125 C-16.99501417 18.27371935 -23.724873 16.91679242 -30.24609375 10.375 C-31.78793233 8.63729267 -33.29667378 6.8693306 -34.76171875 5.06640625 C-37.66535839 1.87466229 -39.5007286 0.98559955 -43.79296875 0.55859375 C-52.25781119 0.37921786 -52.25781119 0.37921786 -59.76953125 3.859375 C-60.97609375 5.096875 -60.97609375 5.096875 -62.20703125 6.359375 C-65.18375819 9.26349885 -67.9088353 10.38529109 -71.76953125 11.859375 C-72.47078125 12.21 -73.17203125 12.560625 -73.89453125 12.921875 C-76.15366708 14.05144292 -78.37826009 15.04130855 -80.76953125 15.859375 C-81.42953125 15.529375 -82.08953125 15.199375 -82.76953125 14.859375 C-84.43572571 14.8197037 -86.10344138 14.81553053 -87.76953125 14.859375 C-87.31578125 15.766875 -86.86203125 16.674375 -86.39453125 17.609375 C-85.49001903 19.41839945 -84.60993541 21.24240502 -83.83203125 23.109375 C-82.41069071 25.45040648 -81.38761696 26.05940437 -78.76953125 26.859375 C-75.79428164 26.56185004 -73.4471193 26.19816903 -70.76953125 24.859375 C-68.76993113 24.819383 -66.76905883 24.81590701 -64.76953125 24.859375 C-66.10286458 25.52604167 -67.43619792 26.19270833 -68.76953125 26.859375 C-69.36765625 27.189375 -69.96578125 27.519375 -70.58203125 27.859375 C-72.89251654 28.91559685 -75.20884488 29.56925724 -77.66015625 30.21875 C-80.20170741 30.9906285 -82.61702812 31.99558843 -85.08203125 32.984375 C-91.45697602 35.32565458 -97.3431659 36.21564462 -103.76953125 33.671875 C-106.74080753 30.97915587 -107.58773424 28.90872309 -107.94140625 24.921875 C-107.78046968 17.41150174 -103.61867396 12.2848165 -98.76953125 6.859375 C-73.0849484 -17.60881595 -28.37326665 -21.93025405 0 0 Z M-99.76953125 18.859375 C-100.44626572 22.26258434 -100.44626572 22.26258434 -100.76953125 25.859375 C-98.94749544 28.08904247 -98.94749544 28.08904247 -96.33203125 28.171875 C-93.7658311 28.04480156 -93.7658311 28.04480156 -91.89453125 26.671875 C-90.54430336 24.85205052 -90.54430336 24.85205052 -90.76953125 22.296875 C-91.56311818 19.656226 -91.56311818 19.656226 -94.14453125 18.484375 C-96.85559394 17.5950832 -96.85559394 17.5950832 -99.76953125 18.859375 Z " fill="#217BD8" transform="translate(308.76953125,159.140625)"/>
<path d="M0 0 C1.4540625 0.495 1.4540625 0.495 2.9375 1 C3.28167969 2.21042969 3.28167969 2.21042969 3.6328125 3.4453125 C4.76557504 6.39902879 4.76557504 6.39902879 8.45703125 7.1796875 C9.88408618 7.43456615 11.3155777 7.6655207 12.75 7.875 C13.46220703 8.00390625 14.17441406 8.1328125 14.90820312 8.265625 C18.82648381 8.91806767 22.11878488 9.17834638 25.9375 8 C26.2675 7.67 26.5975 7.34 26.9375 7 C30.79547355 6.63604023 33.09738698 6.43992465 36.375 8.625 C38.37527431 11.66541695 38.39417063 13.4227467 37.9375 17 C35.9375 20 35.9375 20 33.9140625 20.546875 C32.75003906 20.64742187 32.75003906 20.64742187 31.5625 20.75 C30.79164063 20.82734375 30.02078125 20.9046875 29.2265625 20.984375 C26.9375 21 26.9375 21 25.07202148 20.3972168 C20.8771266 19.61658155 17.09005352 22.28718935 13.375 24.0625 C12.51197266 24.44599609 11.64894531 24.82949219 10.75976562 25.22460938 C5.51039202 27.70042117 3.12024606 29.39943092 0.9375 35 C-0.0525 35.66 -1.0425 36.32 -2.0625 37 C-2.56140301 39.6647993 -2.84837904 42.06414305 -3 44.75 C-3.06767578 45.45382813 -3.13535156 46.15765625 -3.20507812 46.8828125 C-3.43556507 50.4770727 -3.12118675 52.84312579 -1.84375 56.2578125 C2.50465535 60.54514474 7.572197 61.5846076 13.375 63.125 C14.50744141 63.4653125 15.63988281 63.805625 16.80664062 64.15625 C17.90041016 64.45789063 18.99417969 64.75953125 20.12109375 65.0703125 C21.11681396 65.34633301 22.11253418 65.62235352 23.13842773 65.90673828 C26.93957509 66.03338794 28.13955852 64.43226362 30.9375 62 C34.40811229 62.05983814 36.81804428 62.32832657 39.8125 64.125 C41.55899255 67.03582092 41.76082188 69.6431158 41.9375 73 C40.83541992 76.39808026 40.01652124 76.94731917 36.9375 79 C35.45290035 78.86196322 33.97318662 78.66730744 32.5 78.4375 C27.85227742 78.28735331 25.57953655 79.69417168 22.14428711 82.78344727 C20.60767793 84.26882823 19.09753269 85.77453337 17.6015625 87.30078125 C14.9375 90 14.9375 90 12.66015625 91.59765625 C10.52758403 93.33369577 10.24713592 94.45720131 9.75 97.125 C8.9375 101 8.9375 101 7.9375 102 C4.5 102.25 4.5 102.25 0.9375 102 C-1.43934998 98.43472504 -1.07558646 98.11386102 -0.3125 94.125 C0.3859433 87.6061959 -0.99299038 82.09853528 -2.75 75.875 C-3.00620117 74.9380127 -3.26240234 74.00102539 -3.52636719 73.03564453 C-3.7896582 72.15505371 -4.05294922 71.27446289 -4.32421875 70.3671875 C-4.56100342 69.57425293 -4.79778809 68.78131836 -5.04174805 67.96435547 C-5.9082898 65.8266696 -5.9082898 65.8266696 -8.10864258 64.97705078 C-8.75341553 64.65462402 -9.39818848 64.33219727 -10.0625 64 C-10.3925 62.68 -10.7225 61.36 -11.0625 60 C-14.3625 60 -17.6625 60 -21.0625 60 C-21.0625 60.66 -21.0625 61.32 -21.0625 62 C-22.9375 62.625 -22.9375 62.625 -25.0625 63 C-27.0625 61 -27.0625 61 -27.1875 58.375 C-27.14625 57.59125 -27.105 56.8075 -27.0625 56 C-25.40635343 55.61781233 -23.73792976 55.28604898 -22.0625 55 C-21.7325 55.33 -21.4025 55.66 -21.0625 56 C-19.38066052 56.23287008 -17.6912584 56.41264166 -16 56.5625 C-15.08089844 56.64628906 -14.16179687 56.73007813 -13.21484375 56.81640625 C-12.14943359 56.90728516 -12.14943359 56.90728516 -11.0625 57 C-10.7325 56.01 -10.4025 55.02 -10.0625 54 C-9.0725 53.505 -9.0725 53.505 -8.0625 53 C-7.61139238 50.50269179 -7.26732751 48.08002774 -7 45.5625 C-6.17582335 38.22664671 -6.17582335 38.22664671 -5.0625 36 C-6.5475 35.505 -6.5475 35.505 -8.0625 35 C-8.3925 34.34 -8.7225 33.68 -9.0625 33 C-10.85383978 32.94608007 -12.64563899 32.90724429 -14.4375 32.875 C-15.93410156 32.84019531 -15.93410156 32.84019531 -17.4609375 32.8046875 C-20.22512173 32.72783152 -20.22512173 32.72783152 -22.0625 35 C-24.6875 34.625 -24.6875 34.625 -27.0625 34 C-27.0625 32.02 -27.0625 30.04 -27.0625 28 C-24.6875 27.375 -24.6875 27.375 -22.0625 27 C-21.4025 27.66 -20.7425 28.32 -20.0625 29 C-17.52397276 29.17437787 -17.52397276 29.17437787 -14.6875 28.875 C-13.25277344 28.77832031 -13.25277344 28.77832031 -11.7890625 28.6796875 C-8.34959493 27.82228441 -7.14766871 26.85885122 -5.0625 24 C-4.15429635 20.74641317 -4.15429635 20.74641317 -3.8125 17.25 C-3.66296875 16.07953125 -3.5134375 14.9090625 -3.359375 13.703125 C-3.26140625 12.81109375 -3.1634375 11.9190625 -3.0625 11 C-3.7225 11 -4.3825 11 -5.0625 11 C-6.46185013 8.20129973 -6.31515405 6.09501208 -6.0625 3 C-4.3338791 0.02293068 -3.46110203 0 0 0 Z M1.66015625 10.01171875 C-0.8735452 12.93610433 -0.67264556 15.37646643 -0.8125 19.1875 C-0.86921875 20.45980469 -0.9259375 21.73210937 -0.984375 23.04296875 C-1.01015625 24.01878906 -1.0359375 24.99460938 -1.0625 26 C1.80010307 27.29525303 1.80010307 27.29525303 4.08227539 26.24316406 C4.89172607 25.83807617 5.70117676 25.43298828 6.53515625 25.015625 C7.41880859 24.57476562 8.30246094 24.13390625 9.21289062 23.6796875 C10.13263672 23.20789063 11.05238281 22.73609375 12 22.25 C12.92361328 21.79367188 13.84722656 21.33734375 14.79882812 20.8671875 C20.10404406 18.32221171 20.10404406 18.32221171 23.9375 14 C19.07682515 12.19975005 14.19524831 10.71537598 9.125 9.625 C7.78501953 9.33496094 7.78501953 9.33496094 6.41796875 9.0390625 C3.90007839 8.82559725 3.90007839 8.82559725 1.66015625 10.01171875 Z M-2.0625 62 C-3.3954765 65.69369719 -2.70903003 68.14526516 -1.62890625 71.859375 C-1.30986328 72.97441406 -0.99082031 74.08945312 -0.66210938 75.23828125 C-0.31986328 76.39714844 0.02238281 77.55601562 0.375 78.75 C0.71337891 79.92433594 1.05175781 81.09867188 1.40039062 82.30859375 C2.23732579 85.2083973 3.08332331 88.10523732 3.9375 91 C5.77817189 91.72346213 5.77817189 91.72346213 7.9375 92 C10.27780971 90.17378131 12.28748371 88.39524483 14.375 86.3125 C15.49728057 85.22379745 16.62095693 84.13653171 17.74609375 83.05078125 C18.55022705 82.26888428 18.55022705 82.26888428 19.37060547 81.47119141 C21.45672758 79.51248592 23.66939074 77.74241664 25.9375 76 C25.99499557 73.08369887 25.99499557 73.08369887 24.9375 70 C20.07117114 67.5543578 14.94264387 65.92636396 9.75 64.3125 C8.70295898 63.97508789 8.70295898 63.97508789 7.63476562 63.63085938 C4.20762314 62.55804313 1.56524905 62 -2.0625 62 Z " fill="#2053A4" transform="translate(194.0625,188)"/>
<path d="M0 0 C4.79690337 4.22704568 9.35324824 8.64459222 13.16015625 13.7890625 C12.66515625 15.2740625 12.66515625 15.2740625 12.16015625 16.7890625 C10.79890625 15.891875 10.79890625 15.891875 9.41015625 14.9765625 C2.74539872 11.17388834 -4.96840866 10.06082594 -12.46484375 8.9140625 C-21.38666142 7.33962409 -28.35128619 2.68053268 -35.515625 -2.66015625 C-40.41455201 -5.92885209 -44.9582958 -7.04260281 -50.83984375 -6.2109375 C-53.6902677 -5.25896591 -56.26239587 -3.9496751 -58.90234375 -2.5234375 C-59.57072266 -2.18376953 -60.23910156 -1.84410156 -60.92773438 -1.49414062 C-64.34641823 0.28330919 -67.52214919 2.21152543 -70.640625 4.4765625 C-77.70254832 9.58115176 -85.42620348 9.27796322 -93.83984375 8.7890625 C-94.82984375 8.4590625 -95.81984375 8.1290625 -96.83984375 7.7890625 C-96.83984375 6.7990625 -96.83984375 5.8090625 -96.83984375 4.7890625 C-71.50051783 -18.36390565 -27.10051179 -21.09888538 0 0 Z " fill="#5CBDED" transform="translate(308.83984375,159.2109375)"/>
<path d="M0 0 C2 1.5 2 1.5 3 4 C3.13090966 6.67317517 3.04354955 9.32170281 3 12 C4.22976562 11.97679687 5.45953125 11.95359375 6.7265625 11.9296875 C8.3593689 11.91091961 9.9921819 11.89272051 11.625 11.875 C12.43324219 11.85824219 13.24148437 11.84148437 14.07421875 11.82421875 C18.80093815 11.78579014 22.55387702 12.17262906 27 14 C27 14.66 27 15.32 27 16 C27.5775 16.226875 28.155 16.45375 28.75 16.6875 C32.69923011 18.99121757 34.64013811 22.01567188 36.1953125 26.26953125 C36.50210938 27.43871094 36.80890625 28.60789063 37.125 29.8125 C37.61806641 31.65521484 37.61806641 31.65521484 38.12109375 33.53515625 C38.81536982 36.27214679 39.50857805 39.00916695 40.1875 41.75 C40.8406917 44.86215877 40.8406917 44.86215877 42 47 C42.99 46.34 43.98 45.68 45 45 C45.33 45.66 45.66 46.32 46 47 C47.485 47.495 47.485 47.495 49 48 C50.02734375 50.14453125 50.02734375 50.14453125 50.9375 52.8125 C52.44790699 56.84215187 53.74513 59.12805588 57 62 C57.9325512 63.25922333 58.84733118 64.53168614 59.75 65.8125 C66.21520587 74.42746644 73.81932413 78.69084144 83.390625 83.203125 C86.18514055 84.53888627 88.60955553 86.00385565 91 88 C78.81350205 89.31825098 64.55761576 84.64941123 55 77 C49.90729054 72.12213922 45.97178429 67.42041649 43 61 C42.67257812 60.31679688 42.34515625 59.63359375 42.0078125 58.9296875 C39.15564152 52.29144886 37.53365531 45.43871407 36.01416016 38.39599609 C34.31149159 30.98292842 31.67747684 23.86065692 25.625 18.9375 C19.2304422 15.4241403 10.41600641 15.76827713 3.53515625 17.6875 C1.68624551 18.44903155 -0.15709766 19.22404112 -2 20 C-6.61240492 20.59822545 -10.92720789 20.3757954 -15 18 C-18.80244272 14.30318069 -19.81166661 11.27333506 -20 6 C-19.0625 3.0625 -19.0625 3.0625 -18 1 C-17.34 1 -16.68 1 -16 1 C-15.01 3.97 -14.02 6.94 -13 10 C-12.5978125 8.3603125 -12.5978125 8.3603125 -12.1875 6.6875 C-10.01639287 -0.05435899 -6.85081636 -1.24171047 0 0 Z M-7.8125 3.1875 C-9.25192707 4.9969478 -9.25192707 4.9969478 -8.875 7.5625 C-8.15610832 10.3261611 -8.15610832 10.3261611 -5 12 C-2.30535635 11.57223394 -2.30535635 11.57223394 0 10 C1.16210219 7.60648505 1.16210219 7.60648505 1 5 C-0.08333333 3.08333333 -0.08333333 3.08333333 -2 2 C-5.80350374 1.63464916 -5.80350374 1.63464916 -7.8125 3.1875 Z " fill="#1A8AF5" transform="translate(221,224)"/>
<path d="M0 0 C6.11531854 2.26493279 9.02413353 7.69614526 11.75 13.25 C14.03976654 18.48272667 14.86436916 23.31583473 15 29 C14.34 29 13.68 29 13 29 C13 27.68 13 26.36 13 25 C12.01 25.33 11.02 25.66 10 26 C9.505 24.515 9.505 24.515 9 23 C7.35 23.33 5.7 23.66 4 24 C3.731875 24.825 3.46375 25.65 3.1875 26.5 C2.795625 27.655 2.40375 28.81 2 30 C1.608125 31.216875 1.21625 32.43375 0.8125 33.6875 C-1.26485042 39.20211581 -4.43326267 44.324566 -8 49 C-8.66 49 -9.32 49 -10 49 C-10.37898438 49.87205078 -10.37898438 49.87205078 -10.765625 50.76171875 C-16.11091878 60.4542926 -28.48197669 65.98676607 -38.56640625 69.1015625 C-41.36908132 69.80967639 -44.16172636 70.45417815 -47 71 C-46.25 66.2265625 -46.25 66.2265625 -44 64.1875 C-42 63 -42 63 -41 63 C-41 61.68 -41 60.36 -41 59 C-40 57 -40 57 -38.0625 56.25 C-37.381875 55.8375 -36.70125 55.425 -36 55 C-35.80148438 54.11570312 -35.60296875 53.23140625 -35.3984375 52.3203125 C-33.35087199 47.45877427 -29.84677463 45.51476659 -25.5625 42.625 C-24.75006836 42.05628174 -23.93763672 41.48756348 -23.10058594 40.90161133 C-20.13973042 38.83048406 -17.15863002 36.79007356 -14.17333984 34.75439453 C-6.30735186 29.3718971 0.9553916 23.81412033 3 14 C3.61165725 8.48396369 2.91885766 4.86476277 0 0 Z " fill="#2755CE" transform="translate(239,247)"/>
<path d="M0 0 C15.65040339 10.81572464 20.30181011 30.09179366 24.97680664 47.50927734 C29.13080199 64.32235446 29.13080199 64.32235446 40 77 C43.12040296 77.48003447 43.12040296 77.48003447 46.3125 77.25 C47.38113281 77.21390625 48.44976562 77.1778125 49.55078125 77.140625 C50.35902344 77.09421875 51.16726563 77.0478125 52 77 C49.31769816 79.68230184 47.43198814 79.9592464 43.6875 80.3125 C38.12769545 79.84133012 34.88324724 77.10107063 31.0625 73.25 C24.41294215 65.03280027 21.25054865 53.74989871 17.65673828 43.96240234 C9.70614925 20.72132502 9.70614925 20.72132502 -8 5 C-17.1828098 2.17888936 -25.44077898 4.34699913 -34 8 C-35.6657103 8.66905262 -37.33209935 9.33642662 -39 10 C-39.99 7.03 -40.98 4.06 -42 1 C-30.88247437 -6.64329887 -11.55162092 -6.68181995 0 0 Z " fill="#081898" transform="translate(277,187)"/>
<path d="M0 0 C9.33790905 7.18021745 13.86297676 18.83428996 18.07421875 29.484375 C18.54130249 30.66447144 18.54130249 30.66447144 19.01782227 31.8684082 C19.74832191 33.80008917 20.3885102 35.7654585 21.01171875 37.734375 C20.51671875 38.724375 20.51671875 38.724375 20.01171875 39.734375 C18.52671875 38.744375 18.52671875 38.744375 17.01171875 37.734375 C16.82609375 36.1565625 16.82609375 36.1565625 16.63671875 34.546875 C15.94352068 30.31836678 14.69306012 28.46170129 12.0703125 25.21484375 C11.01171875 23.734375 11.01171875 23.734375 11.01171875 21.734375 C10.35171875 21.734375 9.69171875 21.734375 9.01171875 21.734375 C5.01171875 17.26378676 5.01171875 17.26378676 5.01171875 14.734375 C3.69171875 14.404375 2.37171875 14.074375 1.01171875 13.734375 C1.01171875 13.074375 1.01171875 12.414375 1.01171875 11.734375 C-0.30828125 11.074375 -1.62828125 10.414375 -2.98828125 9.734375 C-2.98828125 9.074375 -2.98828125 8.414375 -2.98828125 7.734375 C-6.91933462 6.58781777 -10.92947809 6.15477834 -14.98828125 5.734375 C-16.14328125 5.569375 -17.29828125 5.404375 -18.48828125 5.234375 C-22.90536772 5.86538735 -25.09306808 7.29124991 -28.3203125 10.3125 C-31.48421704 14.90645975 -31.6607077 20.28846473 -31.98828125 25.734375 C-32.60574219 25.52941406 -33.22320312 25.32445312 -33.859375 25.11328125 C-39.61538401 23.28222207 -44.96806441 22.21987636 -50.98828125 21.734375 C-50.98828125 21.074375 -50.98828125 20.414375 -50.98828125 19.734375 C-49.79485673 18.69197939 -48.55691921 17.70027775 -47.30078125 16.734375 C-43.93222975 13.93309693 -42.37228586 11.7418264 -40.80078125 7.671875 C-38.17628919 1.73509295 -33.84571051 0.15942995 -28.046875 -2.20703125 C-18.37217787 -5.55548964 -8.78544844 -5.59230902 0 0 Z " fill="#1E87DE" transform="translate(274.98828125,194.265625)"/>
<path d="M0 0 C15.90917933 -1.13187837 15.90917933 -1.13187837 22.14453125 3.9453125 C28.96356777 11.49649821 31.09257389 21.21359451 33.26464844 30.88134766 C36.17794061 43.8030441 42.00606137 55.18713741 53 63 C62.87403164 68.96257949 76.43485973 72.65195644 88 72 C91.36892491 70.76904667 93.42568691 69.61260063 95.875 67 C97.60102422 62.39726875 97.22984075 57.86070615 97 53 C99.39501886 56.59252829 100.04840113 59.74876716 100 64 C98.77702502 67.74086463 97.44562656 69.58865241 94.5625 72.25 C82.44498041 78.20246576 68.36607189 75.94317397 55.93359375 71.83984375 C53.30202733 70.69684015 51.85984817 69.16982287 50 67 C48.7218442 66.04416175 47.42836112 65.10867252 46.125 64.1875 C34.19557255 55.26252095 30.0735235 41.94371912 25.62329102 28.2434082 C22.61865635 19.22050022 19.14122944 10.86140824 10.546875 6.078125 C9.28527239 5.46046539 8.019521 4.85121624 6.75 4.25 C6.1003125 3.93417969 5.450625 3.61835938 4.78125 3.29296875 C3.19106299 2.52126035 1.59600771 1.75959725 0 1 C0 0.67 0 0.34 0 0 Z " fill="#0823A4" transform="translate(227,240)"/>
<path d="M0 0 C0.495 0.99 0.495 0.99 1 2 C-2.5 5.5 -2.5 5.5 -6 9 C-6.20625 8.360625 -6.4125 7.72125 -6.625 7.0625 C-7.84008638 4.73252072 -7.84008638 4.73252072 -10.546875 4.39453125 C-23.18038867 2.95110944 -35.56817301 2.59361188 -46.1953125 10.66796875 C-48 12 -48 12 -50 12 C-50.2475 12.53625 -50.495 13.0725 -50.75 13.625 C-52 16 -52 16 -53.9375 18.75 C-56.27657647 22.43581746 -57.58031718 25.88291983 -59 30 C-63.875 28.125 -63.875 28.125 -65 27 C-65 18.11356293 -58.95022413 10.81965458 -53.125 4.5625 C-39.55135861 -8.32453697 -16.296619 -6.02601026 0 0 Z " fill="#07048E" transform="translate(288,312)"/>
<path d="M0 0 C-0.25 2.375 -0.25 2.375 -1 5 C-3.0625 6.3125 -3.0625 6.3125 -5 7 C-5 7.99 -5 8.98 -5 10 C-5.33 10.66 -5.66 11.32 -6 12 C-5.34 12.33 -4.68 12.66 -4 13 C-4.99 13 -5.98 13 -7 13 C-9.51304512 14.47826184 -10.78538412 15.26650269 -11.6171875 18.109375 C-11.80667969 19.04523438 -11.80667969 19.04523438 -12 20 C-10.79601562 19.55527344 -9.59203125 19.11054688 -8.3515625 18.65234375 C-6.77618583 18.08033198 -5.20065704 17.50873901 -3.625 16.9375 C-2.8309375 16.64294922 -2.036875 16.34839844 -1.21875 16.04492188 C-0.45820313 15.77099609 0.30234375 15.49707031 1.0859375 15.21484375 C1.7876709 14.95823975 2.4894043 14.70163574 3.21240234 14.43725586 C5 14 5 14 7 15 C-3.37357631 20.74031891 -3.37357631 20.74031891 -9 20 C-9 20.66 -9 21.32 -9 22 C-4.93243167 22.70400221 -1.96979104 23.02920508 2 22 C4 24 4 24 4 27 C4.66 27.33 5.32 27.66 6 28 C6 28.66 6 29.32 6 30 C6.680625 29.938125 7.36125 29.87625 8.0625 29.8125 C11.91936125 30.05868263 14.51079594 31.35802162 18 33 C18.45375 32.34 18.9075 31.68 19.375 31 C19.91125 30.34 20.4475 29.68 21 29 C21.66 29 22.32 29 23 29 C22.71125 29.70125 22.4225 30.4025 22.125 31.125 C20.97866412 34.05452503 19.97374346 37.00921653 19 40 C15.81540494 38.90529545 13.20361093 37.50179761 10.4375 35.625 C-2.37370293 27.54002736 -15.50804408 28.37364823 -30 30 C-30.80267846 27.73156087 -31.21159855 26.5135554 -30.27734375 24.24609375 C-25.43247296 17.70622443 -19.14960104 13.12199688 -12.69482422 8.28222656 C-9.63622926 5.96823338 -6.6627099 3.54506979 -3.671875 1.14453125 C-2 0 -2 0 0 0 Z " fill="#1B34BC" transform="translate(204,298)"/>
<path d="M0 0 C-0.33 1.65 -0.66 3.3 -1 5 C-2.8253125 5.2784375 -2.8253125 5.2784375 -4.6875 5.5625 C-12.78106433 7.35254582 -20.3065233 11.84176087 -26.875 16.8125 C-33.95331075 21.76731752 -41.64525549 21.4854784 -50 21 C-50.99 20.67 -51.98 20.34 -53 20 C-53 19.01 -53 18.02 -53 17 C-38.25743322 3.52946885 -19.2977856 -0.84106572 0 0 Z " fill="#91CCF1" transform="translate(265,147)"/>
<path d="M0 0 C2 1.5 2 1.5 3 4 C3.13090966 6.67317517 3.04354955 9.32170281 3 12 C4.22976562 11.97679687 5.45953125 11.95359375 6.7265625 11.9296875 C8.3593689 11.91091961 9.9921819 11.89272051 11.625 11.875 C12.43324219 11.85824219 13.24148437 11.84148437 14.07421875 11.82421875 C18.80093815 11.78579014 22.55387702 12.17262906 27 14 C27 14.66 27 15.32 27 16 C27.5775 16.226875 28.155 16.45375 28.75 16.6875 C34.96567956 20.31331308 36.35728666 26.40281114 38.1171875 32.9296875 C39.73109441 39.84789994 40.35024231 46.9381599 41 54 C39.14710579 51.22065869 38.57527621 49.79887824 37.88671875 46.6484375 C37.69013672 45.79636719 37.49355469 44.94429688 37.29101562 44.06640625 C36.89423448 42.29694212 36.50342957 40.52612537 36.11914062 38.75390625 C34.36099798 31.21254839 31.79480102 23.96097435 25.625 18.9375 C19.2304422 15.4241403 10.41600641 15.76827713 3.53515625 17.6875 C1.68624551 18.44903155 -0.15709766 19.22404112 -2 20 C-6.61240492 20.59822545 -10.92720789 20.3757954 -15 18 C-18.80244272 14.30318069 -19.81166661 11.27333506 -20 6 C-19.0625 3.0625 -19.0625 3.0625 -18 1 C-17.34 1 -16.68 1 -16 1 C-15.01 3.97 -14.02 6.94 -13 10 C-12.5978125 8.3603125 -12.5978125 8.3603125 -12.1875 6.6875 C-10.01639287 -0.05435899 -6.85081636 -1.24171047 0 0 Z M-7.8125 3.1875 C-9.25192707 4.9969478 -9.25192707 4.9969478 -8.875 7.5625 C-8.15610832 10.3261611 -8.15610832 10.3261611 -5 12 C-2.30535635 11.57223394 -2.30535635 11.57223394 0 10 C1.16210219 7.60648505 1.16210219 7.60648505 1 5 C-0.08333333 3.08333333 -0.08333333 3.08333333 -2 2 C-5.80350374 1.63464916 -5.80350374 1.63464916 -7.8125 3.1875 Z " fill="#1B76D6" transform="translate(221,224)"/>
<path d="M0 0 C4.45046034 2.39587665 8.4963112 5.22144386 12.5078125 8.2890625 C18.44924847 12.03128038 24.69643321 13.38263573 31.5625 14.375 C37.23537936 15.27541794 42.22369976 16.38063294 47.36328125 19.0703125 C49.10978359 20.03826167 49.10978359 20.03826167 51.16015625 20.2578125 C54.07649349 21.26664487 54.75763689 23.04656424 56.25 25.6875 C56.74757813 26.54859375 57.24515625 27.4096875 57.7578125 28.296875 C61.26542103 35.07157033 61.26542103 35.07157033 60.75 38.25 C60.440625 39.0853125 60.440625 39.0853125 60.125 39.9375 C59.76148438 39.36902344 59.39796875 38.80054688 59.0234375 38.21484375 C57.42684287 35.76263815 55.78599032 33.34651136 54.125 30.9375 C53.68027344 30.27234375 53.23554688 29.6071875 52.77734375 28.921875 C47.01317774 21.1915066 38.21629934 20.05874989 29.1875 18.5625 C18.35119787 16.7360423 9.89792908 11.81474413 1.0859375 5.35546875 C-4.00425084 1.67471503 -9.82349418 2.23665746 -15.875 2.9375 C-19.87658719 4.45571736 -23.2923082 6.6163194 -26.875 8.9375 C-29.01489248 10.21831156 -31.16076844 11.48917909 -33.3125 12.75 C-34.28058594 13.33394531 -35.24867188 13.91789063 -36.24609375 14.51953125 C-41.00665133 17.08726142 -44.90847828 17.07321164 -50.3125 17.0625 C-51.61058594 17.06507813 -52.90867188 17.06765625 -54.24609375 17.0703125 C-57.27611541 16.95941827 -59.93998638 16.65004666 -62.875 15.9375 C-61.125 12.0625 -61.125 12.0625 -58.875 10.9375 C-58.875 11.5975 -58.875 12.2575 -58.875 12.9375 C-44.54604501 13.40701673 -37.36289868 11.59641049 -25.0546875 3.87890625 C-16.57266355 -1.29992164 -9.49536211 -4.47363394 0 0 Z " fill="#457CD0" transform="translate(270.875,154.0625)"/>
<path d="M0 0 C4.02915496 1.89607292 7.45501406 4.32317388 11 7 C19.04614877 12.52531528 26.46187437 14.77462495 36.0625 16.4375 C45.96866501 18.1961123 52.10883584 20.67226369 58 29 C59.35450371 31.14244215 60.66791276 33.29330008 61.921875 35.49609375 C62.27765625 35.99238281 62.6334375 36.48867187 63 37 C63.66 37 64.32 37 65 37 C65.495 40.96 65.495 40.96 66 45 C65.01 45 64.02 45 63 45 C62.5153125 44.07058594 62.030625 43.14117187 61.53125 42.18359375 C55.39259808 30.2707302 55.39259808 30.2707302 44.5078125 23.1796875 C40.59130064 22.37368071 36.74935962 22.03521087 32.7578125 21.84765625 C23.77451708 21.41434435 17.04465825 20.05741742 10.5234375 13.515625 C8.98159892 11.77791767 7.47285747 10.0099556 6.0078125 8.20703125 C2.60087864 4.46205532 -0.50726234 3.59160837 -5.5 3.25 C-13.41199728 3.27703416 -19.47008343 6.76829001 -26.28320312 10.53027344 C-27.11013672 10.98563477 -27.93707031 11.44099609 -28.7890625 11.91015625 C-29.52850098 12.33433838 -30.26793945 12.75852051 -31.02978516 13.19555664 C-33 14 -33 14 -36 13 C-33.12529214 11.30427355 -30.24504432 9.62061389 -27.3515625 7.95703125 C-25.27925029 6.74697482 -23.22696785 5.50088541 -21.2109375 4.19921875 C-14.26343914 -0.09429425 -8.12121823 -1.66183272 0 0 Z " fill="#0A37A5" transform="translate(268,156)"/>
<path d="M0 0 C0.969375 0.33 1.93875 0.66 2.9375 1 C3.16695312 1.80695313 3.39640625 2.61390625 3.6328125 3.4453125 C4.76557504 6.39902879 4.76557504 6.39902879 8.45703125 7.1796875 C9.88408618 7.43456615 11.3155777 7.6655207 12.75 7.875 C13.81831055 8.06835938 13.81831055 8.06835938 14.90820312 8.265625 C18.82648381 8.91806767 22.11878488 9.17834638 25.9375 8 C26.2675 7.67 26.5975 7.34 26.9375 7 C30.79547355 6.63604023 33.09738698 6.43992465 36.375 8.625 C38.37527431 11.66541695 38.39417063 13.4227467 37.9375 17 C35.9375 20 35.9375 20 33.7734375 20.51171875 C32.96132812 20.56972656 32.14921875 20.62773437 31.3125 20.6875 C30.49523437 20.75324219 29.67796875 20.81898438 28.8359375 20.88671875 C27.89621094 20.94279297 27.89621094 20.94279297 26.9375 21 C26.2775 20.01 25.6175 19.02 24.9375 18 C24.2775 17.67 23.6175 17.34 22.9375 17 C22.9375 16.01 22.9375 15.02 22.9375 14 C20.35682437 13.30081695 17.77377153 12.61538951 15.1875 11.9375 C14.45789063 11.73833984 13.72828125 11.53917969 12.9765625 11.33398438 C9.2095409 10.35798332 6.64429011 9.85963264 2.9375 11 C1.60416667 11.33333333 0.27083333 11.66666667 -1.0625 12 C-1.0625 13.32 -1.0625 14.64 -1.0625 16 C-2.0525 15.67 -3.0425 15.34 -4.0625 15 C-3.7325 13.68 -3.4025 12.36 -3.0625 11 C-3.7225 11 -4.3825 11 -5.0625 11 C-6.46185013 8.20129973 -6.31515405 6.09501208 -6.0625 3 C-4.3338791 0.02293068 -3.46110203 0 0 0 Z " fill="#226CB8" transform="translate(194.0625,188)"/>
<path d="M0 0 C14.50487235 10.80150069 20.57334124 24.21724208 24.79296875 41.26953125 C26.0806471 46.44631103 27.69188531 51.476729 29.3984375 56.53125 C30 59 30 59 29 62 C25.55202759 55.75378017 23.787957 49.80095762 22.1875 42.875 C20.12754628 34.41162948 17.55676167 27.05098576 13.3203125 19.44921875 C12 17 12 17 12 15 C11.4225 14.773125 10.845 14.54625 10.25 14.3125 C8 13 8 13 6.0625 10.5625 C3.91620036 7.8958853 1.9198927 6.70327074 -1 5 C-1 4.34 -1 3.68 -1 3 C-1.56847656 2.86722656 -2.13695312 2.73445312 -2.72265625 2.59765625 C-5 2 -5 2 -7.12109375 1.24609375 C-17.21581579 -2.27769624 -27.67746806 -2.37963013 -37.4375 2.125 C-37.953125 2.41375 -38.46875 2.7025 -39 3 C-39 4.98 -39 6.96 -39 9 C-39.33 9 -39.66 9 -40 9 C-40 7.35 -40 5.7 -40 4 C-40.66 3.67 -41.32 3.34 -42 3 C-40.82668763 1.86021084 -39.63546115 0.73885382 -38.4375 -0.375 C-37.77621094 -1.00148437 -37.11492187 -1.62796875 -36.43359375 -2.2734375 C-26.05509049 -9.63667737 -10.20634449 -6.02646708 0 0 Z " fill="#44B3FC" transform="translate(245,221)"/>
<path d="M0 0 C6.11531854 2.26493279 9.02413353 7.69614526 11.75 13.25 C14.03976654 18.48272667 14.86436916 23.31583473 15 29 C14.34 29 13.68 29 13 29 C13 27.68 13 26.36 13 25 C12.01 25.33 11.02 25.66 10 26 C9.67 25.01 9.34 24.02 9 23 C7.35 23.33 5.7 23.66 4 24 C3.71125 24.94875 3.4225 25.8975 3.125 26.875 C2 30 2 30 0 32 C-0.99 32.2475 -1.98 32.495 -3 32.75 C-6.30709993 33.72305853 -6.30709993 33.72305853 -7.375 37.125 C-7.58125 38.07375 -7.7875 39.0225 -8 40 C-8.763125 39.979375 -9.52625 39.95875 -10.3125 39.9375 C-13.10185786 39.87057159 -13.10185786 39.87057159 -16 41 C-16.3203125 38.73828125 -16.3203125 38.73828125 -16 36 C-13.8046875 34.04296875 -13.8046875 34.04296875 -10.875 32.1875 C-4.06423139 27.53303651 1.26284005 22.33836778 3 14 C3.61165725 8.48396369 2.91885766 4.86476277 0 0 Z " fill="#1E6BCD" transform="translate(239,247)"/>
<path d="M0 0 C2.31 0 4.62 0 7 0 C8.17300089 4.10238344 9.33731306 8.20718259 10.5 12.3125 C10.83386719 13.47974609 11.16773438 14.64699219 11.51171875 15.84960938 C11.82753906 16.96787109 12.14335937 18.08613281 12.46875 19.23828125 C12.90864258 20.7857605 12.90864258 20.7857605 13.35742188 22.36450195 C14 25 14 25 14 28 C19.00137179 27.61315356 21.63771803 24.98516344 25.0625 21.625 C30.73617749 16.18506952 30.73617749 16.18506952 33.35546875 14.34765625 C34.16951172 13.68056641 34.16951172 13.68056641 35 13 C35.33397787 9.87413125 35.33397787 9.87413125 35 7 C35.66 7 36.32 7 37 7 C37 9.31 37 11.62 37 14 C40.63 14 44.26 14 48 14 C47.67 14.66 47.34 15.32 47 16 C46.41734375 15.87238281 45.8346875 15.74476563 45.234375 15.61328125 C40.36279212 15.02348269 37.84594441 15.37950288 33.8046875 18.34375 C31.68036795 20.25570224 29.66443884 22.26027598 27.6640625 24.30078125 C25 27 25 27 22.72265625 28.59765625 C20.59008403 30.33369577 20.30963592 31.45720131 19.8125 34.125 C19 38 19 38 18 39 C14.5625 39.25 14.5625 39.25 11 39 C8.62315002 35.43472504 8.98691354 35.11386102 9.75 31.125 C10.44597503 24.62123334 9.0729937 19.14371697 7.3125 12.9375 C7.05629883 12.0088916 6.80009766 11.0802832 6.53613281 10.12353516 C5.10389518 5.35087058 4.31989235 2.78866421 0 0 Z " fill="#12258E" transform="translate(184,251)"/>
<path d="M0 0 C0.33 0 0.66 0 1 0 C1.18451025 9.41002278 1.18451025 9.41002278 0 14 C3.61393308 13.41584531 6.42476184 12.44519602 9.64453125 10.71484375 C10.48564453 10.26689453 11.32675781 9.81894531 12.19335938 9.35742188 C13.05767578 8.88884766 13.92199219 8.42027344 14.8125 7.9375 C15.69615234 7.46505859 16.57980469 6.99261719 17.49023438 6.50585938 C19.66331578 5.34296716 21.83302284 4.17421625 24 3 C26 5 26 5 27 7 C26.34926514 7.27150879 25.69853027 7.54301758 25.02807617 7.82275391 C22.07210728 9.0697332 19.13012615 10.34687115 16.1875 11.625 C15.16333984 12.05167969 14.13917969 12.47835937 13.08398438 12.91796875 C7.04735366 15.4977253 7.04735366 15.4977253 2.80078125 20.3359375 C2.53652344 21.21507812 2.27226562 22.09421875 2 23 C-0.64 22.67 -3.28 22.34 -6 22 C-6 21.34 -6 20.68 -6 20 C-8.12563103 20.11376617 -10.2505261 20.24135631 -12.375 20.375 C-13.55835938 20.44460937 -14.74171875 20.51421875 -15.9609375 20.5859375 C-19.10562319 20.70217346 -19.10562319 20.70217346 -21 23 C-23.625 22.625 -23.625 22.625 -26 22 C-26 20.02 -26 18.04 -26 16 C-23.625 15.375 -23.625 15.375 -21 15 C-20.34 15.66 -19.68 16.32 -19 17 C-14.19764671 17.22868349 -9.53866287 16.91587076 -5.375 14.4375 C-3.40836102 10.95118544 -3.26571117 7.98566751 -3 4 C-2.01 4 -1.02 4 0 4 C0 2.68 0 1.36 0 0 Z " fill="#2764AE" transform="translate(193,200)"/>
<path d="M0 0 C-0.25 2.375 -0.25 2.375 -1 5 C-3.0625 6.3125 -3.0625 6.3125 -5 7 C-5 7.99 -5 8.98 -5 10 C-5.33 10.66 -5.66 11.32 -6 12 C-5.34 12.33 -4.68 12.66 -4 13 C-4.99 13 -5.98 13 -7 13 C-9.21271011 14.11754471 -9.21271011 14.11754471 -11 16 C-11.8042208 18.59855733 -11.8042208 18.59855733 -12 21 C-11.34 21 -10.68 21 -10 21 C-8.875 24.75 -8.875 24.75 -10 27 C-13.3 27 -16.6 27 -20 27 C-20.66 25.68 -21.32 24.36 -22 23 C-22.99 22.67 -23.98 22.34 -25 22 C-25 20.68 -25 19.36 -25 18 C-22.89293934 16.04280141 -20.86823336 14.3774109 -18.5625 12.6875 C-17.92666992 12.20692139 -17.29083984 11.72634277 -16.63574219 11.23120117 C-15.35769546 10.26522434 -14.07630787 9.30365067 -12.79150391 8.34667969 C-9.6945668 6.01870135 -6.69306743 3.5694357 -3.671875 1.14453125 C-2 0 -2 0 0 0 Z " fill="#2033BC" transform="translate(204,298)"/>
<path d="M0 0 C0 2.33333333 0 4.66666667 0 7 C0.99 6.34 1.98 5.68 3 5 C5.9375 4.5625 5.9375 4.5625 9 5 C12.2146432 7.79166383 12.93543113 9.37583423 13.375 13.625 C13 17 13 17 11 20 C11.33 20.66 11.66 21.32 12 22 C11.34 22 10.68 22 10 22 C10 22.66 10 23.32 10 24 C0.07794677 24.58365019 0.07794677 24.58365019 -4 21 C-6.44795163 17.21680202 -6.20343625 13.60954927 -5.625 9.29296875 C-4.58683693 5.484208 -2.50346968 3.01700193 0 0 Z M2 8 C1.32326553 11.40320934 1.32326553 11.40320934 1 15 C2.82203581 17.22966747 2.82203581 17.22966747 5.4375 17.3125 C8.00370015 17.18542656 8.00370015 17.18542656 9.875 15.8125 C11.22522789 13.99267552 11.22522789 13.99267552 11 11.4375 C10.20641307 8.796851 10.20641307 8.796851 7.625 7.625 C4.91393731 6.7357082 4.91393731 6.7357082 2 8 Z " fill="#2771C1" transform="translate(207,170)"/>
<path d="M0 0 C2.33984375 0.2109375 2.33984375 0.2109375 5 1 C10.5207929 8.57051818 14.47639475 22.71912441 14 32 C12.68 31.34 11.36 30.68 10 30 C9.01 30.66 8.02 31.32 7 32 C4.76383268 26.97110816 3.73711278 21.76764062 2.58789062 16.4140625 C1.52004561 11.64917639 0.0531341 7.43383375 -2 3 C-1.34 3 -0.68 3 0 3 C0 2.01 0 1.02 0 0 Z " fill="#1E9CF7" transform="translate(255,240)"/>
<path d="M0 0 C0.86625 0.825 1.7325 1.65 2.625 2.5 C10.53037491 9.28062645 20.43865129 14.04357985 30 18 C30 18.33 30 18.66 30 19 C17.67047878 20.33372225 3.76304207 15.54920033 -6 8 C-6.33 7.34 -6.66 6.68 -7 6 C-5.5459375 5.62875 -5.5459375 5.62875 -4.0625 5.25 C-2.5465625 4.63125 -2.5465625 4.63125 -1 4 C-0.26404798 1.97445397 -0.26404798 1.97445397 0 0 Z " fill="#1071F7" transform="translate(282,293)"/>
<path d="M0 0 C4.815 1.3375 4.815 1.3375 6.375 3.9375 C7.52173145 8.78905613 7.65699051 10.37351897 5.375 14.9375 C1.085 14.9375 -3.205 14.9375 -7.625 14.9375 C-7.625 12.6275 -7.625 10.3175 -7.625 7.9375 C-8.285 7.9375 -8.945 7.9375 -9.625 7.9375 C-9.30587403 4.95899096 -8.56332742 3.87038572 -6.5 1.625 C-3.625 -0.0625 -3.625 -0.0625 0 0 Z " fill="#184FB4" transform="translate(228.625,250.0625)"/>
<path d="M0 0 C1.91619141 -0.02126953 1.91619141 -0.02126953 3.87109375 -0.04296875 C7.46531971 0.18143266 10.22446958 0.88221144 13.5625 2.1875 C13.5625 2.8475 13.5625 3.5075 13.5625 4.1875 C14.14 4.414375 14.7175 4.64125 15.3125 4.875 C21.52817956 8.50081308 22.91978666 14.59031114 24.6796875 21.1171875 C26.29359441 28.03539994 26.91274231 35.1256599 27.5625 42.1875 C25.70960579 39.40815869 25.13777621 37.98637824 24.44921875 34.8359375 C24.25263672 33.98386719 24.05605469 33.13179688 23.85351562 32.25390625 C23.45673448 30.48444212 23.06592957 28.71362537 22.68164062 26.94140625 C20.88535761 19.23644952 18.55811319 11.91986884 11.875 7.14453125 C7.18090618 4.57358842 2.80132273 4.61346123 -2.4375 4.875 C-3.30761719 4.89755859 -4.17773438 4.92011719 -5.07421875 4.94335938 C-7.19607251 5.00165206 -9.31702629 5.09130916 -11.4375 5.1875 C-11.7675 3.8675 -12.0975 2.5475 -12.4375 1.1875 C-8.25686147 0.18446772 -4.29337757 0.02161822 0 0 Z " fill="#186BD3" transform="translate(234.4375,235.8125)"/>
<path d="M0 0 C1.18239258 0.00676758 1.18239258 0.00676758 2.38867188 0.01367188 C4.32164761 0.02538688 6.25458393 0.04332002 8.1875 0.0625 C7.8575 1.7125 7.5275 3.3625 7.1875 5.0625 C5.33125 5.371875 5.33125 5.371875 3.4375 5.6875 C-1.96478451 6.84697283 -6.48444495 9.28717496 -11.30859375 11.91796875 C-12.13488281 12.29566406 -12.96117187 12.67335937 -13.8125 13.0625 C-14.4725 12.7325 -15.1325 12.4025 -15.8125 12.0625 C-15.8125 11.4025 -15.8125 10.7425 -15.8125 10.0625 C-14.8225 10.0625 -13.8325 10.0625 -12.8125 10.0625 C-12.8125 8.7425 -12.8125 7.4225 -12.8125 6.0625 C-17.18027478 4.76095102 -19.51021141 5.41101847 -23.625 7.25 C-25.18927734 7.94222656 -25.18927734 7.94222656 -26.78515625 8.6484375 C-30.50147348 10.38431729 -34.1721455 12.17231593 -37.8125 14.0625 C-37.8125 13.4025 -37.8125 12.7425 -37.8125 12.0625 C-25.65782194 4.97430097 -14.1518347 -0.15421111 0 0 Z " fill="#85C8F2" transform="translate(256.8125,146.9375)"/>
<path d="M0 0 C0.495 0.99 0.495 0.99 1 2 C0.33355469 2.07476562 -0.33289063 2.14953125 -1.01953125 2.2265625 C-8.74547721 3.32872542 -14.37688404 5.97882245 -21 10 C-23.14354871 11.27468309 -25.28938411 12.54552874 -27.4375 13.8125 C-28.40558594 14.39644531 -29.37367188 14.98039063 -30.37109375 15.58203125 C-35.13165133 18.14976142 -39.03347828 18.13571164 -44.4375 18.125 C-45.73558594 18.12757813 -47.03367188 18.13015625 -48.37109375 18.1328125 C-51.40111541 18.02191827 -54.06498638 17.71254666 -57 17 C-55.25 13.125 -55.25 13.125 -53 12 C-53 12.66 -53 13.32 -53 14 C-38.67224263 14.46947749 -31.49230162 12.65782078 -19.18359375 4.9453125 C-7.50705103 -2.18955655 -7.50705103 -2.18955655 0 0 Z " fill="#5A89D5" transform="translate(265,153)"/>
<path d="M0 0 C2.4375 1.625 2.4375 1.625 4 4 C4.50299316 8.10777749 4.32749345 9.50875983 2 13 C-0.1640625 13.51171875 -0.1640625 13.51171875 -2.625 13.6875 C-3.44226563 13.75324219 -4.25953125 13.81898438 -5.1015625 13.88671875 C-5.72804687 13.92410156 -6.35453125 13.96148437 -7 14 C-7.66 13.01 -8.32 12.02 -9 11 C-9.66 10.67 -10.32 10.34 -11 10 C-11.48309179 3.59903382 -11.48309179 3.59903382 -9.4375 1.0625 C-6.05293473 -0.41282332 -3.65396822 -0.45674603 0 0 Z " fill="#2075CE" transform="translate(228,195)"/>
<path d="M0 0 C10.22965944 2.42281408 19.60497868 10.96423583 26 19 C26.77734375 21.8046875 26.77734375 21.8046875 27 24 C25.845 23.401875 24.69 22.80375 23.5 22.1875 C20.56822675 20.70332246 17.67226383 19.49470723 14.5625 18.4375 C13.386875 17.963125 12.21125 17.48875 11 17 C9.89131683 13.67395049 9.45822468 10.46941546 9 7 C8.01 7 7.02 7 6 7 C3.99690671 6.68578929 1.99628664 6.3548954 0 6 C0 4.02 0 2.04 0 0 Z " fill="#42B2ED" transform="translate(295,152)"/>
<path d="M0 0 C2.39501886 3.59252829 3.04840113 6.74876716 3 11 C1.77702502 14.74086463 0.44562656 16.58865241 -2.4375 19.25 C-12.86696175 24.37324437 -25.14134658 23.61955114 -36 20 C-36.33 19.01 -36.66 18.02 -37 17 C-36.67 16.67 -36.34 16.34 -36 16 C-30.87083623 16.13470531 -25.81891829 16.98750221 -20.8125 18.0625 C-15.4329514 19.17376825 -11.01948301 19.73788802 -5.75 17.8125 C-2.49699241 15.66847227 -1.37251914 14.66005104 0 11 C0.23365958 7.31856357 0.17415239 3.68300054 0 0 Z " fill="#061BA2" transform="translate(324,293)"/>
<path d="M0 0 C6.22149989 0.43659648 9.69995201 1.7784022 15 5 C15.99 5 16.98 5 18 5 C19.53515625 7.01171875 19.53515625 7.01171875 21.0625 9.6875 C21.56910156 10.55761719 22.07570313 11.42773438 22.59765625 12.32421875 C26.14661071 19.09590065 26.14661071 19.09590065 25.625 22.3125 C25.315625 23.1478125 25.315625 23.1478125 25 24 C24.63648438 23.43152344 24.27296875 22.86304688 23.8984375 22.27734375 C22.30184287 19.82513815 20.66099032 17.40901136 19 15 C18.55527344 14.33484375 18.11054688 13.6696875 17.65234375 12.984375 C12.60543232 6.21592236 5.00136184 4.47583889 -3 3 C-2.01 2.67 -1.02 2.34 0 2 C0 1.34 0 0.68 0 0 Z " fill="#2D74CA" transform="translate(306,170)"/>
<path d="M0 0 C0.66 0 1.32 0 2 0 C2.36311239 6.41498559 2.36311239 6.41498559 0.875 8.8125 C-1 10 -1 10 -4.0625 10.8125 C-7.3148689 11.72990818 -7.3148689 11.72990818 -8.375 15.125 C-8.58125 16.07375 -8.7875 17.0225 -9 18 C-9.763125 17.979375 -10.52625 17.95875 -11.3125 17.9375 C-14.10185786 17.87057159 -14.10185786 17.87057159 -17 19 C-17.33203125 16.75390625 -17.33203125 16.75390625 -17 14 C-14.69921875 11.90234375 -14.69921875 11.90234375 -11.6875 9.9375 C-7.59715888 7.28805294 -7.59715888 7.28805294 -4.33203125 3.75390625 C-3.89246094 3.17511719 -3.45289063 2.59632813 -3 2 C-2.01 2 -1.02 2 0 2 C0 1.34 0 0.68 0 0 Z " fill="#2E6FD0" transform="translate(240,269)"/>
<path d="M0 0 C9.37295532 2.63614368 15.01126326 11.25186825 20 19 C18.47793991 21.62901288 17.15634036 23.84365964 15 26 C14.50371094 24.865625 14.00742187 23.73125 13.49609375 22.5625 C8.63928906 11.60462998 8.63928906 11.60462998 1.25 2.25 C0.8375 1.8375 0.425 1.425 0 1 C0 0.67 0 0.34 0 0 Z " fill="#1A5FC4" transform="translate(281,190)"/>
<path d="M0 0 C0.33 0 0.66 0 1 0 C1.07476562 0.7734375 1.14953125 1.546875 1.2265625 2.34375 C2.07099847 9.03300748 3.20232838 13.31208839 7.85546875 18.28125 C9 20 9 20 8.921875 22.07421875 C7.72102842 24.58276691 6.5585769 25.14345133 4.0625 26.3125 C3.35222656 26.65925781 2.64195312 27.00601562 1.91015625 27.36328125 C0.96462891 27.67845703 0.96462891 27.67845703 0 28 C-0.66 27.67 -1.32 27.34 -2 27 C-1.34 26.34 -0.68 25.68 0 25 C-0.66 23.68 -1.32 22.36 -2 21 C-1.34 21 -0.68 21 0 21 C-0.33 20.01 -0.66 19.02 -1 18 C-1.99 18 -2.98 18 -4 18 C-2.68 17.34 -1.36 16.68 0 16 C0 10.72 0 5.44 0 0 Z " fill="#10289F" transform="translate(280,323)"/>
<path d="M0 0 C1.16144531 0.00902344 2.32289063 0.01804688 3.51953125 0.02734375 C4.39996094 0.03894531 5.28039062 0.05054688 6.1875 0.0625 C6.1875 0.3925 6.1875 0.7225 6.1875 1.0625 C4.2075 1.0625 2.2275 1.0625 0.1875 1.0625 C-0.1425 3.0425 -0.4725 5.0225 -0.8125 7.0625 C-1.4725 6.7325 -2.1325 6.4025 -2.8125 6.0625 C-8.21798976 5.3939429 -8.21798976 5.3939429 -12.75 7.6875 C-13.99653504 10.47387245 -14.46879723 13.03791559 -14.8125 16.0625 C-17.8125 14.0625 -17.8125 14.0625 -18.31640625 12.0390625 C-18.37747546 9.58815174 -18.34164196 7.46070794 -17.8125 5.0625 C-12.48564107 0.10728239 -6.98564097 -0.07056203 0 0 Z " fill="#2CB1F7" transform="translate(223.8125,218.9375)"/>
<path d="M0 0 C3.20220123 2.78085896 3.92791739 4.40274407 4.4375 8.625 C4 12 4 12 2.875 13.875 C0.18335071 15.48998958 -1.86418639 15.87456746 -5 16 C-7.8125 15 -7.8125 15 -10 13 C-11.18088423 9.01451574 -11.42601594 6.93317777 -9.6875 3.125 C-6.86291011 -0.43189097 -4.4138695 -0.52966434 0 0 Z M-7 3 C-7.67673447 6.40320934 -7.67673447 6.40320934 -8 10 C-6.17796419 12.22966747 -6.17796419 12.22966747 -3.5625 12.3125 C-0.99629985 12.18542656 -0.99629985 12.18542656 0.875 10.8125 C2.22522789 8.99267552 2.22522789 8.99267552 2 6.4375 C1.20641307 3.796851 1.20641307 3.796851 -1.375 2.625 C-4.08606269 1.7357082 -4.08606269 1.7357082 -7 3 Z " fill="#1350C2" transform="translate(216,175)"/>
<path d="M0 0 C1.29421875 0.08765625 2.5884375 0.1753125 3.921875 0.265625 C7.25 0.75 7.25 0.75 10.25 2.75 C6.55034395 4.59982802 1.91379797 4.12166894 -2.18945312 4.26757812 C-8.51735909 4.56151241 -14.14019291 5.60850803 -19.75 8.75 C-19.75 10.73 -19.75 12.71 -19.75 14.75 C-20.08 14.75 -20.41 14.75 -20.75 14.75 C-20.75 13.1 -20.75 11.45 -20.75 9.75 C-21.41 9.42 -22.07 9.09 -22.75 8.75 C-21.57668763 7.61021084 -20.38546115 6.48885382 -19.1875 5.375 C-18.52621094 4.74851563 -17.86492187 4.12203125 -17.18359375 3.4765625 C-11.79492194 -0.34654013 -6.4069235 -0.48888171 0 0 Z " fill="#38B4F1" transform="translate(225.75,215.25)"/>
<path d="M0 0 C-0.25 2.375 -0.25 2.375 -1 5 C-3.0625 6.3125 -3.0625 6.3125 -5 7 C-5 7.99 -5 8.98 -5 10 C-5.33 10.66 -5.66 11.32 -6 12 C-5.34 12.33 -4.68 12.66 -4 13 C-4.99 13 -5.98 13 -7 13 C-8.65503095 14.0772721 -8.65503095 14.0772721 -10.1875 15.5 C-11.115625 16.325 -12.04375 17.15 -13 18 C-13.33 17.34 -13.66 16.68 -14 16 C-14.99 16 -15.98 16 -17 16 C-17 13 -17 13 -15.125 10.8125 C-3.61598926 0 -3.61598926 0 0 0 Z " fill="#233EC3" transform="translate(204,298)"/>
<path d="M0 0 C0.99 0 1.98 0 3 0 C6.81182372 8.74286377 9.23303955 17.4633403 11.29956055 26.75073242 C12.0896703 30.28207951 12.82876063 33.58326213 14.20703125 36.9375 C15 39 15 39 14 42 C10.51298781 35.6797904 8.66067811 29.56563434 7 22.5625 C5.43223841 15.97703993 3.73806669 9.86210578 0.76953125 3.75756836 C0 2 0 2 0 0 Z " fill="#47ABFA" transform="translate(260,241)"/>
<path d="M0 0 C1 1 1 1 1.1328125 2.8125 C1.13023437 3.534375 1.12765625 4.25625 1.125 5 C1.12757813 5.721875 1.13015625 6.44375 1.1328125 7.1875 C1 9 1 9 0 10 C-3.4375 10.1875 -3.4375 10.1875 -7 10 C-9 8 -9 8 -9.375 5.0625 C-9 2 -9 2 -7.3125 0.0625 C-4.41290937 -1.26974434 -2.99317984 -0.97076103 0 0 Z " fill="#1C5BA3" transform="translate(183,199)"/>
<path d="M0 0 C0 0.99 0 1.98 0 3 C-0.99 3.33 -1.98 3.66 -3 4 C-3.99 5.485 -3.99 5.485 -5 7 C-8.4375 6.1875 -8.4375 6.1875 -12 5 C-13 2 -13 2 -13 1 C-13.93972656 1.03480469 -13.93972656 1.03480469 -14.8984375 1.0703125 C-16.12433594 1.09738281 -16.12433594 1.09738281 -17.375 1.125 C-18.18710937 1.14820313 -18.99921875 1.17140625 -19.8359375 1.1953125 C-22 1 -22 1 -24 -1 C-7.53409091 -3.09090909 -7.53409091 -3.09090909 0 0 Z " fill="#6FC2EE" transform="translate(276,147)"/>
<path d="M0 0 C13.6332574 0.59453303 13.6332574 0.59453303 20 4 C20.45375 3.34 20.9075 2.68 21.375 2 C21.91125 1.34 22.4475 0.68 23 0 C23.66 0 24.32 0 25 0 C24.566875 1.051875 24.566875 1.051875 24.125 2.125 C22.97866412 5.05452503 21.97374346 8.00921653 21 11 C17.75724961 9.88530455 15.03891121 8.4296963 12.1875 6.5625 C8.27249641 4.04198341 4.40292075 2.49384811 0 1 C0 0.67 0 0.34 0 0 Z " fill="#1126A2" transform="translate(202,327)"/>
<path d="M0 0 C2.09350689 3.4019487 2.17942163 6.05272412 2 10 C2.99 10.33 3.98 10.66 5 11 C4.67 11.99 4.34 12.98 4 14 C-2.625 13.25 -2.625 13.25 -6 11 C-6.46655398 7.45418978 -6.03474581 4.95038143 -4 2 C-1.875 0.75 -1.875 0.75 0 0 Z " fill="#0418B8" transform="translate(235,332)"/>
<path d="M0 0 C0.25 5.625 0.25 5.625 -2 9 C-2.11641465 12.6052161 -2.04345602 16.15011527 -1.921875 19.75195312 C-1.77586889 26.74199545 -1.77586889 26.74199545 -4 30 C-4.99 29.67 -5.98 29.34 -7 29 C-6.34 28.34 -5.68 27.68 -5 27 C-5.33 26.01 -5.66 25.02 -6 24 C-5.75653872 21.59616968 -5.43482615 19.19976765 -5.0625 16.8125 C-4.77052734 14.90404297 -4.77052734 14.90404297 -4.47265625 12.95703125 C-4.31667969 11.98121094 -4.16070312 11.00539063 -4 10 C-4.99 10.33 -5.98 10.66 -7 11 C-7 10.34 -7 9.68 -7 9 C-6.34 9 -5.68 9 -5 9 C-5.33 7.02 -5.66 5.04 -6 3 C-1.125 0 -1.125 0 0 0 Z " fill="#154AB8" transform="translate(327,278)"/>
<path d="M0 0 C0.66 0 1.32 0 2 0 C2 2.31 2 4.62 2 7 C5.63 7 9.26 7 13 7 C12.67 7.66 12.34 8.32 12 9 C11.40574219 8.88398438 10.81148437 8.76796875 10.19921875 8.6484375 C5.51614338 8.13861592 2.95004763 8.28266929 -0.90234375 11.19140625 C-2.76537657 12.98799346 -4.58719133 14.82858239 -6.359375 16.71484375 C-9.33486544 19.2897874 -11.12993693 19.73407461 -15 20 C-12.5635139 17.48229769 -10.14094775 15.11706195 -7.44140625 12.875 C-6.53261719 12.111875 -5.62382812 11.34875 -4.6875 10.5625 C-3.80449219 9.84191406 -2.92148438 9.12132812 -2.01171875 8.37890625 C0.30882706 6.09745669 0.30882706 6.09745669 0.29296875 2.71484375 C0.19628906 1.81894531 0.09960938 0.92304688 0 0 Z " fill="#204A99" transform="translate(219,258)"/>
<path d="M0 0 C-0.84884766 0.34611328 -0.84884766 0.34611328 -1.71484375 0.69921875 C-6.29345917 2.56137229 -6.29345917 2.56137229 -9.0625 6.375 C-8.99198933 9.33644801 -8.60656734 12.10195606 -8 15 C-9.65 16.32 -11.3 17.64 -13 19 C-12.79375 19.61875 -12.5875 20.2375 -12.375 20.875 C-12.25125 21.57625 -12.1275 22.2775 -12 23 C-12.66 23.66 -13.32 24.32 -14 25 C-14.33 23.68 -14.66 22.36 -15 21 C-16.98 21.99 -16.98 21.99 -19 23 C-19.66 22.01 -20.32 21.02 -21 20 C-18.48169253 16.87729874 -17.2738451 16.05476902 -13.25 15.25 C-11.64125 15.12625 -11.64125 15.12625 -10 15 C-10.0721875 14.31292969 -10.144375 13.62585938 -10.21875 12.91796875 C-10.3115625 12.01691406 -10.404375 11.11585938 -10.5 10.1875 C-10.5928125 9.29417969 -10.685625 8.40085937 -10.78125 7.48046875 C-11 5 -11 5 -11 2 C-7.75267347 -1.24732653 -4.25451414 -1.41817138 0 0 Z " fill="#1854B3" transform="translate(341,258)"/>
<path d="M0 0 C2.31 0 4.62 0 7 0 C8.01323683 3.37116829 9.00818641 6.74747264 10 10.125 C10.28617188 11.07632812 10.57234375 12.02765625 10.8671875 13.0078125 C12.25946179 17.78132437 13.40650073 21.96955344 13 27 C12.34 27 11.68 27 11 27 C10.80889648 26.2886792 10.61779297 25.5773584 10.42089844 24.84448242 C9.54575665 21.6211488 8.64818921 18.40448382 7.75 15.1875 C7.44964844 14.06794922 7.14929688 12.94839844 6.83984375 11.79492188 C6.53691406 10.72177734 6.23398438 9.64863281 5.921875 8.54296875 C5.64956055 7.55321045 5.37724609 6.56345215 5.09667969 5.54370117 C3.85550775 2.66485647 2.63929616 1.6195681 0 0 Z " fill="#193B8F" transform="translate(184,251)"/>
<path d="M0 0 C1.37562854 1.28965176 2.70766393 2.62689293 4 4 C4 4.66 4 5.32 4 6 C4.99 6.33 5.98 6.66 7 7 C7 7.99 7 8.98 7 10 C3.37 10.33 -0.26 10.66 -4 11 C-5 7 -5 7 -4.00390625 5.078125 C-3.52824219 4.47484375 -3.05257812 3.8715625 -2.5625 3.25 C-2.08941406 2.63640625 -1.61632812 2.0228125 -1.12890625 1.390625 C-0.75636719 0.93171875 -0.38382813 0.4728125 0 0 Z " fill="#1B27AE" transform="translate(178,317)"/>
<path d="M0 0 C6.11531854 2.26493279 9.02413353 7.69614526 11.75 13.25 C14.03976654 18.48272667 14.86436916 23.31583473 15 29 C14.34 29 13.68 29 13 29 C12.82984375 28.02417969 12.6596875 27.04835938 12.484375 26.04296875 C12.24203125 24.77066406 11.9996875 23.49835938 11.75 22.1875 C11.51796875 20.92292969 11.2859375 19.65835937 11.046875 18.35546875 C9.93501844 14.79171954 9.19889957 13.77790079 6 12 C5.01 12.495 5.01 12.495 4 13 C3.87882813 12.39671875 3.75765625 11.7934375 3.6328125 11.171875 C3.46523437 10.37265625 3.29765625 9.5734375 3.125 8.75 C2.96257812 7.96109375 2.80015625 7.1721875 2.6328125 6.359375 C2.00849925 4.03168856 1.15161458 2.10968048 0 0 Z " fill="#1F60D0" transform="translate(239,247)"/>
<path d="M0 0 C1.66870487 0.32297514 3.33465333 0.66013333 5 1 C8.32888939 1.38175337 11.66323675 1.69547986 15 2 C15.33 1.34 15.66 0.68 16 0 C16 2.31 16 4.62 16 7 C15.67 6.34 15.34 5.68 15 5 C11.7 5 8.4 5 5 5 C5 5.66 5 6.32 5 7 C3.125 7.625 3.125 7.625 1 8 C-1 6 -1 6 -1.1875 3.4375 C-1 1 -1 1 0 0 Z " fill="#173B97" transform="translate(168,243)"/>
<path d="M0 0 C12.375 3.465 12.375 3.465 25 7 C24.67 8.32 24.34 9.64 24 11 C15.42 8.36 6.84 5.72 -2 3 C-1.34 2.67 -0.68 2.34 0 2 C0 1.34 0 0.68 0 0 Z " fill="#1B4591" transform="translate(194,247)"/>
<path d="M0 0 C0.33 0.33 0.66 0.66 1 1 C2.68608966 1.07205511 4.37500659 1.08386068 6.0625 1.0625 C6.98160156 1.05347656 7.90070313 1.04445312 8.84765625 1.03515625 C9.55792969 1.02355469 10.26820313 1.01195312 11 1 C11.33 1.99 11.66 2.98 12 4 C10.84371094 4.07347656 10.84371094 4.07347656 9.6640625 4.1484375 C8.66117188 4.22320312 7.65828125 4.29796875 6.625 4.375 C5.62726563 4.44460937 4.62953125 4.51421875 3.6015625 4.5859375 C0.84491121 4.76363964 0.84491121 4.76363964 -1 7 C-3.625 6.625 -3.625 6.625 -6 6 C-6 4.02 -6 2.04 -6 0 C-3.49749232 -1.25125384 -2.59701335 -0.83774624 0 0 Z " fill="#184495" transform="translate(173,216)"/>
<path d="M0 0 C0 0.99 0 1.98 0 3 C0.66 3 1.32 3 2 3 C2 3.66 2 4.32 2 5 C1.34 5 0.68 5 0 5 C0 5.66 0 6.32 0 7 C-2.64 7 -5.28 7 -8 7 C-8 4.36 -8 1.72 -8 -1 C-4.59745511 -2.2151946 -3.06748874 -1.86240388 0 0 Z " fill="#1547AF" transform="translate(192,244)"/>
<path d="M0 0 C1 2 1 2 2 5 C2.99 5.33 3.98 5.66 5 6 C-0.70072936 8.44316973 -4.79492698 9.51708942 -11 9 C-12.32 8.34 -13.64 7.68 -15 7 C-11.7 7 -8.4 7 -5 7 C-6.98 6.34 -8.96 5.68 -11 5 C-10.67 4.01 -10.34 3.02 -10 2 C-8.72125 2.04125 -7.4425 2.0825 -6.125 2.125 C-3.98128508 2.24212873 -3.98128508 2.24212873 -2 2 C-1.34 1.34 -0.68 0.68 0 0 Z " fill="#236EC2" transform="translate(222,235)"/>
<path d="M0 0 C0.12109311 7.07721931 -0.14626761 13.97195301 -1 21 C-3 19 -3 19 -3.1953125 16.8359375 C-3.17210937 16.02382812 -3.14890625 15.21171875 -3.125 14.375 C-3.10695313 13.55773437 -3.08890625 12.74046875 -3.0703125 11.8984375 C-3.03550781 10.95871094 -3.03550781 10.95871094 -3 10 C-3.66 9.67 -4.32 9.34 -5 9 C-6 6 -6 6 -5.25 3.375 C-3.90141173 0.81268228 -3.10656835 0 0 0 Z " fill="#278BD5" transform="translate(334,201)"/>
<path d="M0 0 C5.19644079 1.59890486 10.06612142 3.74138003 15 6 C15 6.33 15 6.66 15 7 C7.48193151 7.44032071 1.15775723 6.28612778 -6 4 C-6 3.67 -6 3.34 -6 3 C-5.195625 2.87625 -4.39125 2.7525 -3.5625 2.625 C-2.716875 2.41875 -1.87125 2.2125 -1 2 C-0.67 1.34 -0.34 0.68 0 0 Z " fill="#105EEF" transform="translate(297,305)"/>
<path d="M0 0 C2.375 0.75 2.375 0.75 3.375 1.75 C3.5625 4.1875 3.5625 4.1875 3.375 6.75 C2.715 7.41 2.055 8.07 1.375 8.75 C-1.125 8.6875 -1.125 8.6875 -3.625 7.75 C-4.9375 5.1875 -4.9375 5.1875 -5.625 2.75 C-3.73358522 0.26129634 -3.21105313 -0.30581458 0 0 Z " fill="#172F84" transform="translate(155.625,230.25)"/>
<path d="M0 0 C1.875 0.6875 1.875 0.6875 2.875 1.6875 C3 4.6875 3 4.6875 2.875 7.6875 C1.875 8.6875 1.875 8.6875 -1.125 8.8125 C-4.125 8.6875 -4.125 8.6875 -5.125 7.6875 C-5.375 4.75 -5.375 4.75 -5.125 1.6875 C-2.125 -0.3125 -2.125 -0.3125 0 0 Z " fill="#2462AC" transform="translate(188.125,171.3125)"/>
<path d="M0 0 C1.32 0 2.64 0 4 0 C4 0.66 4 1.32 4 2 C5.32 1.67 6.64 1.34 8 1 C8 2.65 8 4.3 8 6 C7.34 6 6.68 6 6 6 C5.67 6.99 5.34 7.98 5 9 C3.02 9.33 1.04 9.66 -1 10 C-0.67 6.7 -0.34 3.4 0 0 Z " fill="#1F85D6" transform="translate(222,197)"/>
<path d="M0 0 C2.375 -0.125 2.375 -0.125 5 0 C5.66 0.66 6.32 1.32 7 2 C6.875 4.5 6.875 4.5 6 7 C3.9375 8.3125 3.9375 8.3125 2 9 C0.68 7.68 -0.64 6.36 -2 5 C-1.34 3.35 -0.68 1.7 0 0 Z " fill="#12278E" transform="translate(178,268)"/>
<path d="M0 0 C0.66 0 1.32 0 2 0 C4.29612756 11.52164009 4.29612756 11.52164009 4 17 C0.78050145 14.27580892 -0.83240501 12.62568796 -1.9375 8.5 C-1.99958404 5.02329384 -1.57596963 3.05923516 0 0 Z " fill="#2476C9" transform="translate(203,225)"/>
<path d="M0 0 C2.375 0.375 2.375 0.375 4.375 2.375 C4.5 5.5 4.5 5.5 4.375 8.375 C1.735 8.045 -0.905 7.715 -3.625 7.375 C-3.625 6.715 -3.625 6.055 -3.625 5.375 C-4.615 5.045 -5.605 4.715 -6.625 4.375 C-3.3356599 0.47652284 -3.3356599 0.47652284 0 0 Z " fill="#1B62BF" transform="translate(190.625,214.625)"/>
<path d="M0 0 C7.88729601 1.86804379 15.51022831 7.26534247 20 14 C17.1986841 12.81482789 15.17815856 11.32406379 12.9375 9.3125 C11.968125 8.549375 10.99875 7.78625 10 7 C9.01 7.33 8.02 7.66 7 8 C5.31422289 7.38325228 3.64551962 6.71727778 2 6 C1.34 6 0.68 6 0 6 C0 4.02 0 2.04 0 0 Z " fill="#52B1DE" transform="translate(295,152)"/>
<path d="M0 0 C4.62 0 9.24 0 14 0 C13.67 1.65 13.34 3.3 13 5 C9.7 5.33 6.4 5.66 3 6 C2.34 5.01 1.68 4.02 1 3 C0.34 3 -0.32 3 -1 3 C-0.67 2.01 -0.34 1.02 0 0 Z " fill="#7AC6F1" transform="translate(251,147)"/>
<path d="M0 0 C0.57105469 0.19335938 1.14210938 0.38671875 1.73046875 0.5859375 C8.7351329 2.83544809 15.716406 4.02961522 23 5 C22.67 5.99 22.34 6.98 22 8 C18.7 8 15.4 8 12 8 C11.67 7.01 11.34 6.02 11 5 C8.96069994 4.22984403 8.96069994 4.22984403 6.5625 3.875 C2.12658228 3.06329114 2.12658228 3.06329114 0 2 C0 1.34 0 0.68 0 0 Z " fill="#397FCC" transform="translate(284,164)"/>
<path d="M0 0 C0.25 6.625 0.25 6.625 -2 10 C-5.625 10.6875 -5.625 10.6875 -9 11 C-9.24609375 8.70703125 -9.24609375 8.70703125 -9 6 C-7.28515625 4.19921875 -7.28515625 4.19921875 -5.0625 2.6875 C-4.33160156 2.17574219 -3.60070312 1.66398437 -2.84765625 1.13671875 C-1 0 -1 0 0 0 Z " fill="#2B65D1" transform="translate(232,277)"/>
<path d="M0 0 C1.98 0.99 3.96 1.98 6 3 C5.79375 3.53625 5.5875 4.0725 5.375 4.625 C4.8685253 7.83267308 5.84599775 10.01317066 7 13 C7.33 13 7.66 13 8 13 C8 14.65 8 16.3 8 18 C3.4445821 14.42074308 1.62907986 9.40715867 0 4 C0 2.68 0 1.36 0 0 Z " fill="#0D42B4" transform="translate(272,271)"/>
<path d="M0 0 C-6.39712444 2.88497769 -6.39712444 2.88497769 -9.375 3.453125 C-17.28100545 5.10020947 -24.86892374 9.29732579 -32 13 C-32 12.34 -32 11.68 -32 11 C-8.35932945 -2.78644315 -8.35932945 -2.78644315 0 0 Z " fill="#92BCE3" transform="translate(251,148)"/>
<path d="M0 0 C0.72445313 0.2165625 1.44890625 0.433125 2.1953125 0.65625 C9.46667314 2.76603569 9.46667314 2.76603569 17 3 C17.66 5.31 18.32 7.62 19 10 C16.69 10 14.38 10 12 10 C12.66 9.34 13.32 8.68 14 8 C9.38 5.69 4.76 3.38 0 1 C0 0.67 0 0.34 0 0 Z " fill="#0C35C0" transform="translate(296,303)"/>
<path d="M0 0 C-0.25 2.375 -0.25 2.375 -1 5 C-3.0625 6.3125 -3.0625 6.3125 -5 7 C-5 7.99 -5 8.98 -5 10 C-5.99 10.33 -6.98 10.66 -8 11 C-8.66 10.34 -9.32 9.68 -10 9 C-10.66 8.67 -11.32 8.34 -12 8 C-10.37982158 6.66081194 -8.75370657 5.3288031 -7.125 4 C-6.22007812 3.2575 -5.31515625 2.515 -4.3828125 1.75 C-2 0 -2 0 0 0 Z " fill="#2748B7" transform="translate(204,298)"/>
<path d="M0 0 C4.64285714 4.28571429 4.64285714 4.28571429 6 7 C6 10.0328771 4.78566731 11.59858534 3 14 C0.6256736 16.29518219 -0.42774033 16.96098229 -3.75 17.1875 C-4.86375 17.0946875 -4.86375 17.0946875 -6 17 C-5.67 16.34 -5.34 15.68 -5 15 C-3.35 15 -1.7 15 0 15 C0 14.34 0 13.68 0 13 C0.66 12.67 1.32 12.34 2 12 C2 10.35 2 8.7 2 7 C1.34 6.67 0.68 6.34 0 6 C0 4.02 0 2.04 0 0 Z " fill="#2877C6" transform="translate(344,240)"/>
<path d="M0 0 C2 3 2 3 2 5 C4.16874252 4.49396008 5.99967627 4.00016187 8 3 C8 4.65 8 6.3 8 8 C6.39592672 8.02708567 4.7917215 8.04643483 3.1875 8.0625 C1.84751953 8.07990234 1.84751953 8.07990234 0.48046875 8.09765625 C-2 8 -2 8 -5 7 C-5 6.01 -5 5.02 -5 4 C-2.5 1.8125 -2.5 1.8125 0 0 Z " fill="#99C7F2" transform="translate(217,160)"/>
<path d="M0 0 C0.33 0.99 0.66 1.98 1 3 C-5.28571429 8.57142857 -5.28571429 8.57142857 -9 9 C-9 9.66 -9 10.32 -9 11 C-13.455 12.485 -13.455 12.485 -18 14 C-14.36364015 10.14449982 -10.58308152 7.13258862 -6.1875 4.1875 C-5.59001953 3.78080078 -4.99253906 3.37410156 -4.37695312 2.95507812 C-2.92125436 1.96520297 -1.46108826 0.98190265 0 0 Z " fill="#2E5BC0" transform="translate(222,284)"/>
<path d="M0 0 C1.88671875 0.13671875 1.88671875 0.13671875 4 1 C5.51953125 3.14453125 5.51953125 3.14453125 6.8125 5.8125 C7.25207031 6.68519531 7.69164062 7.55789062 8.14453125 8.45703125 C9.06404749 11.19038776 9.0076835 12.34787595 8 15 C1.66514806 5.58997722 1.66514806 5.58997722 -1 1 C-0.67 0.67 -0.34 0.34 0 0 Z " fill="#2468C8" transform="translate(323,179)"/>
<path d="M0 0 C2 2 2 2 3 4 C1.25705322 4.86846831 -0.49468663 5.71930627 -2.25 6.5625 C-3.22453125 7.03816406 -4.1990625 7.51382813 -5.203125 8.00390625 C-8.09856297 9.03510273 -9.19966161 9.11346788 -12 8 C-9.69716746 5.45868642 -7.32686207 3.92889705 -4.3125 2.3125 C-3.50425781 1.87550781 -2.69601563 1.43851563 -1.86328125 0.98828125 C-1.24839844 0.66214844 -0.63351563 0.33601562 0 0 Z " fill="#2972B2" transform="translate(217,203)"/>
<path d="M0 0 C2.39501886 3.59252829 3.04840113 6.74876716 3 11 C1.3039195 16.18801094 -1.24511149 18.42443539 -6 21 C-6.99 21 -7.98 21 -9 21 C-9 20.34 -9 19.68 -9 19 C-8.071875 18.608125 -7.14375 18.21625 -6.1875 17.8125 C-2.53880101 15.73774959 -1.46637199 14.91032532 0 11 C0.23365958 7.31856357 0.17415239 3.68300054 0 0 Z " fill="#16329E" transform="translate(324,293)"/>
<path d="M0 0 C1.9375 1.4375 1.9375 1.4375 3 3 C3 3.66 3 4.32 3 5 C2.34 5 1.68 5 1 5 C0.67 4.34 0.34 3.68 0 3 C-2.41645782 2.83312552 -2.41645782 2.83312552 -5 3 C-5.66 3.66 -6.32 4.32 -7 5 C-9.125 4.625 -9.125 4.625 -11 4 C-8.40658844 -1.74255417 -5.99557401 -1.26222611 0 0 Z " fill="#1F56A7" transform="translate(232,251)"/>
<path d="M0 0 C3.5625 0.5 3.5625 0.5 6 2.125 C7.95894605 5.102598 7.88035906 7.00355037 7.5625 10.5 C6.5725 10.995 6.5725 10.995 5.5625 11.5 C4.76296862 8.21303767 4.46591064 6.78976808 5.5625 3.5 C4.2425 3.83 2.9225 4.16 1.5625 4.5 C1.5625 3.84 1.5625 3.18 1.5625 2.5 C-1.0775 3.16 -3.7175 3.82 -6.4375 4.5 C-4.63984111 1.11617151 -3.88584714 0.56521413 0 0 Z " fill="#307DBB" transform="translate(224.4375,194.5)"/>
<path d="M0 0 C3.96 0 7.92 0 12 0 C12.33 0.66 12.66 1.32 13 2 C12.34 2 11.68 2 11 2 C11 2.66 11 3.32 11 4 C9.54176788 4.0270043 8.08339325 4.04639787 6.625 4.0625 C5.81289062 4.07410156 5.00078125 4.08570313 4.1640625 4.09765625 C2 4 2 4 0 3 C0 2.01 0 1.02 0 0 Z " fill="#1B6ECD" transform="translate(206,190)"/>
<path d="M0 0 C3.60146869 2.05798211 6.93204301 4.19501075 10 7 C10 7.99 10 8.98 10 10 C9.46375 9.690625 8.9275 9.38125 8.375 9.0625 C5.6015043 7.82172561 2.99957163 7.4090325 0 7 C0 4.69 0 2.38 0 0 Z " fill="#44B7EE" transform="translate(305,159)"/>
<path d="M0 0 C0.66 0 1.32 0 2 0 C0.66666667 3.33333333 -0.66666667 6.66666667 -2 10 C-4.03833424 8.7260411 -6.03852126 7.38938077 -8 6 C-8 5.34 -8 4.68 -8 4 C-9.32 3.67 -10.64 3.34 -12 3 C-11.34 2.34 -10.68 1.68 -10 1 C-6.535 2.485 -6.535 2.485 -3 4 C-2.54625 3.34 -2.0925 2.68 -1.625 2 C-1.08875 1.34 -0.5525 0.68 0 0 Z " fill="#0C25BB" transform="translate(225,327)"/>
<path d="M0 0 C0.43828125 0.433125 0.8765625 0.86625 1.328125 1.3125 C6.68951153 6.0200589 10.60701787 6.57735798 17.65625 6.2109375 C18.81640625 6.10652344 18.81640625 6.10652344 20 6 C17.31769816 8.68230184 15.43198814 8.9592464 11.6875 9.3125 C7.2907794 8.93989656 5.38681286 7.7710287 2 5 C0.125 2.75 0.125 2.75 -1 1 C-0.67 0.67 -0.34 0.34 0 0 Z " fill="#04259D" transform="translate(309,258)"/>
<path d="M0 0 C0.67224609 0.03996094 1.34449219 0.07992187 2.03710938 0.12109375 C5.61355678 0.38391114 7.3917648 0.71950986 10.4375 2.75 C7.45537087 4.24106457 4.72140342 3.86941467 1.4375 3.75 C1.1075 3.42 0.7775 3.09 0.4375 2.75 C-1.57844582 2.51572222 -3.600974 2.33663876 -5.625 2.1875 C-6.72972656 2.10371094 -7.83445313 2.01992187 -8.97265625 1.93359375 C-9.82730469 1.87300781 -10.68195313 1.81242188 -11.5625 1.75 C-7.82270991 -0.73681694 -4.28622501 -0.35546321 0 0 Z " fill="#42B0EE" transform="translate(225.5625,215.25)"/>
<path d="M0 0 C2.31 0 4.62 0 7 0 C7 1.98 7 3.96 7 6 C4.69 6 2.38 6 0 6 C0 4.02 0 2.04 0 0 Z " fill="#195CBF" transform="translate(176,201)"/>
<path d="M0 0 C1.2866645 2.573329 1.16824551 4.50223038 1.1875 7.375 C1.20167969 8.33148438 1.21585937 9.28796875 1.23046875 10.2734375 C0.99745572 13.03010017 0.40920164 14.64947395 -1 17 C-1.99 16.67 -2.98 16.34 -4 16 C-3.34 15.34 -2.68 14.68 -2 14 C-2.33 13.01 -2.66 12.02 -3 11 C-2.6953125 8.5546875 -2.6953125 8.5546875 -2.125 5.875 C-1.94195312 4.98554688 -1.75890625 4.09609375 -1.5703125 3.1796875 C-1 1 -1 1 0 0 Z " fill="#0F3CBA" transform="translate(324,291)"/>
<path d="M0 0 C0.99148595 1.96550078 1.96862529 3.9323183 2.89453125 5.9296875 C5.08461336 10.57079768 7.56653608 14.18504009 11 18 C7.62537285 17.45276317 5.91765 16.9451 3 15 C2.4375 12.6875 2.4375 12.6875 2 10 C1.649375 9.175 1.29875 8.35 0.9375 7.5 C-0.06664944 4.82226817 -0.16195541 2.83421974 0 0 Z " fill="#2C7FC7" transform="translate(333,222)"/>
<path d="M0 0 C3.08325358 -0.0582253 6.16636505 -0.09367134 9.25 -0.125 C10.55904297 -0.15013672 10.55904297 -0.15013672 11.89453125 -0.17578125 C12.73886719 -0.18222656 13.58320313 -0.18867188 14.453125 -0.1953125 C15.22817383 -0.20578613 16.00322266 -0.21625977 16.80175781 -0.22705078 C19.25883539 0.02673444 20.87311542 0.77555848 23 2 C22.67 2.99 22.34 3.98 22 5 C19.525 4.505 19.525 4.505 17 4 C17 3.34 17 2.68 17 2 C16.1646875 2.01740234 16.1646875 2.01740234 15.3125 2.03515625 C10.10221657 2.09676433 5.1562049 1.74999344 0 1 C0 0.67 0 0.34 0 0 Z " fill="#2B97EA" transform="translate(293,178)"/>
<path d="M0 0 C0.4125 0.37511719 0.825 0.75023437 1.25 1.13671875 C5.56213158 4.95796035 10.03440438 8.08513088 15 11 C13.125 11.625 13.125 11.625 11 12 C10.34 11.34 9.68 10.68 9 10 C6.42938689 9.35232207 6.42938689 9.35232207 4 9 C4 8.01 4 7.02 4 6 C3.34 6 2.68 6 2 6 C2 5.01 2 4.02 2 3 C1.34 3 0.68 3 0 3 C0 2.01 0 1.02 0 0 Z " fill="#1A70F1" transform="translate(282,293)"/>
<path d="M0 0 C6.6 0 13.2 0 20 0 C17.14304316 2.85695684 15.00216484 2.68236787 11 3 C2.67346939 2.67346939 2.67346939 2.67346939 0 0 Z " fill="#0D1E8A" transform="translate(295,313)"/>
<path d="M0 0 C-0.84884766 0.34611328 -0.84884766 0.34611328 -1.71484375 0.69921875 C-6.29345917 2.56137229 -6.29345917 2.56137229 -9.0625 6.375 C-8.99198933 9.33644801 -8.60656734 12.10195606 -8 15 C-8.66 15.33 -9.32 15.66 -10 16 C-10.16834933 14.22932584 -10.33461909 12.45845388 -10.5 10.6875 C-10.5928125 9.70136719 -10.685625 8.71523438 -10.78125 7.69921875 C-11 5 -11 5 -11 2 C-7.75267347 -1.24732653 -4.25451414 -1.41817138 0 0 Z " fill="#225AAB" transform="translate(341,258)"/>
<path d="M0 0 C3.875 1.875 3.875 1.875 5 3 C5.35897436 9.46153846 5.35897436 9.46153846 3 13 C1.0546875 13.29296875 1.0546875 13.29296875 -1.125 13.1875 C-3.043125 13.0946875 -3.043125 13.0946875 -5 13 C-5 12.01 -5 11.02 -5 10 C-4.67 10.33 -4.34 10.66 -4 11 C-1.54190002 11.2500773 -1.54190002 11.2500773 1 11 C1.66 10.34 2.32 9.68 3 9 C3.07272562 6.44539786 3.07272562 6.44539786 2 4 C-0.47636012 2.62533375 -0.47636012 2.62533375 -3 2 C-2.01 1.34 -1.02 0.68 0 0 Z " fill="#235AB6" transform="translate(214,175)"/>
<path d="M0 0 C0.33 0.66 0.66 1.32 1 2 C1.66 2.33 2.32 2.66 3 3 C-1.105466 6.97185616 -4.02968261 9.70876501 -10 10 C-6.66666667 6.66666667 -3.33333333 3.33333333 0 0 Z " fill="#243B95" transform="translate(214,268)"/>
<path d="M0 0 C0.33 1.32 0.66 2.64 1 4 C2.65 4.33 4.3 4.66 6 5 C2.35417269 6.21527577 1.51096991 5.65504434 -1.9375 4.1875 C-3.21947266 3.65189453 -3.21947266 3.65189453 -4.52734375 3.10546875 C-6.71826649 2.12595669 -8.86481506 1.09483961 -11 0 C-7.18243176 -1.37432457 -3.92744671 -0.67975039 0 0 Z " fill="#3BB9FA" transform="translate(241,219)"/>
<path d="M0 0 C3.01898986 1.50949493 3.59960549 4.01655082 5 7 C5.33 7.66 5.66 8.32 6 9 C4.68 9.33 3.36 9.66 2 10 C2 9.34 2 8.68 2 8 C1.34 7.67 0.68 7.34 0 7 C-0.33 7.66 -0.66 8.32 -1 9 C-1.625 6.1875 -1.625 6.1875 -2 3 C-1.34 2.01 -0.68 1.02 0 0 Z " fill="#072BAB" transform="translate(264,285)"/>
<path d="M0 0 C0.33 1.32 0.66 2.64 1 4 C0.24074219 4.06058594 -0.51851563 4.12117188 -1.30078125 4.18359375 C-2.29464844 4.26738281 -3.28851563 4.35117187 -4.3125 4.4375 C-5.29863281 4.51871094 -6.28476562 4.59992188 -7.30078125 4.68359375 C-10.09375599 4.91812559 -10.09375599 4.91812559 -13 6 C-14.32 4.35 -15.64 2.7 -17 1 C-16.319375 1.165 -15.63875 1.33 -14.9375 1.5 C-9.4776179 2.42934163 -5.03466718 2.44105075 0 0 Z " fill="#215ACB" transform="translate(329,264)"/>
<path d="M0 0 C1.41702513 0.14230808 2.8336096 0.28900746 4.25 0.4375 C5.43335938 0.55931641 5.43335938 0.55931641 6.640625 0.68359375 C8.82364639 0.97634993 10.8773182 1.42064419 13 2 C12.67 3.32 12.34 4.64 12 6 C8.04 4.68 4.08 3.36 0 2 C0 1.34 0 0.68 0 0 Z " fill="#1A4D99" transform="translate(206,252)"/>
<path d="M0 0 C0.33 0 0.66 0 1 0 C1.36206897 6.39655172 1.36206897 6.39655172 -0.125 8.875 C-2.76862586 10.46117551 -4.93346518 10.81225297 -8 11 C-10.375 10.0625 -10.375 10.0625 -12 9 C-12 8.34 -12 7.68 -12 7 C-8.7 7.33 -5.4 7.66 -2 8 C-1.34 5.36 -0.68 2.72 0 0 Z " fill="#0C47BB" transform="translate(219,180)"/>
<path d="M0 0 C0.78375 0.185625 1.5675 0.37125 2.375 0.5625 C4.97089775 1.25962266 4.97089775 1.25962266 7 0 C7.66 2.97 8.32 5.94 9 9 C5.07399037 7.03699519 2.90350441 5.22611601 0 2 C0 1.34 0 0.68 0 0 Z " fill="#0A3CBA" transform="translate(280,289)"/>
<path d="M0 0 C0.99 0 1.98 0 3 0 C4.45184478 4.53701494 5.23509196 8.18061476 5 13 C4.34 13 3.68 13 3 13 C2.49487756 11.39743892 1.99608373 9.79288208 1.5 8.1875 C1.2215625 7.29417969 0.943125 6.40085937 0.65625 5.48046875 C0 3 0 3 0 0 Z " fill="#1C3586" transform="translate(192,265)"/>
<path d="M0 0 C2.62027436 2.62027436 3.48198873 5.57923297 4.6875 9 C4.92533203 9.64195312 5.16316406 10.28390625 5.40820312 10.9453125 C6.00166907 12.60910558 6.50730517 14.30363299 7 16 C6.67 16.66 6.34 17.32 6 18 C5.01 17.34 4.02 16.68 3 16 C2.61936779 13.6739143 2.28730055 11.33944736 2 9 C1.34 8.01 0.68 7.02 0 6 C-0.125 2.8125 -0.125 2.8125 0 0 Z " fill="#2774DA" transform="translate(289,216)"/>
<path d="M0 0 C0.99 0 1.98 0 3 0 C1.3050685 3.78100104 -0.47883408 6.0492713 -4 8.25 C-6 9 -6 9 -9 8 C-8.43410156 7.50628906 -7.86820313 7.01257813 -7.28515625 6.50390625 C-6.55167969 5.86324219 -5.81820312 5.22257813 -5.0625 4.5625 C-4.33160156 3.92441406 -3.60070312 3.28632813 -2.84765625 2.62890625 C-1.87860647 1.77458541 -0.91348825 0.91348825 0 0 Z " fill="#297ACA" transform="translate(233,206)"/>
<path d="M0 0 C3.99500618 1.3697164 6.80009492 3.25722422 10 6 C-0.55808656 5.03644647 -0.55808656 5.03644647 -5 4 C-5 3.67 -5 3.34 -5 3 C-3.35 2.67 -1.7 2.34 0 2 C0 1.34 0 0.68 0 0 Z " fill="#1C4BC9" transform="translate(272,304)"/>
<path d="M0 0 C2.32472205 2.85306797 3.7508258 5.54074837 5 9 C1.5625 8.1875 1.5625 8.1875 -2 7 C-2.33 6.01 -2.66 5.02 -3 4 C-2.67 3.34 -2.34 2.68 -2 2 C-1.34 2 -0.68 2 0 2 C0 1.34 0 0.68 0 0 Z " fill="#1D63CE" transform="translate(301,248)"/>
<path d="M0 0 C1.67056149 0.31323028 3.33605325 0.65334443 5 1 C7.99558991 1.37633039 10.9966347 1.69246586 14 2 C14 2.33 14 2.66 14 3 C12.39592672 3.02708567 10.7917215 3.04643483 9.1875 3.0625 C7.84751953 3.07990234 7.84751953 3.07990234 6.48046875 3.09765625 C4 3 4 3 1 2 C1.66 3.98 2.32 5.96 3 8 C1.68 7.34 0.36 6.68 -1 6 C-1.042721 4.33388095 -1.04063832 2.66617115 -1 1 C-0.67 0.67 -0.34 0.34 0 0 Z " fill="#1A3D87" transform="translate(168,243)"/>
<path d="M0 0 C4.95 0 9.9 0 15 0 C14.67 0.99 14.34 1.98 14 3 C13.278125 2.814375 12.55625 2.62875 11.8125 2.4375 C9.02649796 1.8200209 9.02649796 1.8200209 6.4375 2.625 C5.633125 2.74875 4.82875 2.8725 4 3 C2.68 2.01 1.36 1.02 0 0 Z " fill="#0B2D9F" transform="translate(227,240)"/>
<path d="M0 0 C0.33 0.66 0.66 1.32 1 2 C6.94 2.33 12.88 2.66 19 3 C19 3.33 19 3.66 19 4 C8.11 4.495 8.11 4.495 -3 5 C-1 1 -1 1 0 0 Z " fill="#648BC7" transform="translate(211,165)"/>
<path d="M0 0 C-0.33 0.66 -0.66 1.32 -1 2 C-1.99 1.9175 -2.98 1.835 -4 1.75 C-8.05437429 1.71697047 -10.82469549 3.15817741 -14.30078125 5.125 C-16 6 -16 6 -18 6 C-17 3 -17 3 -14.625 1.3125 C-9.69350703 -0.47304056 -5.18883047 -0.24928545 0 0 Z " fill="#2986E4" transform="translate(266,159)"/>
<path d="M0 0 C1.32 0 2.64 0 4 0 C4.33 1.98 4.66 3.96 5 6 C3.0625 6.5625 3.0625 6.5625 1 7 C0 6 0 6 -0.0625 2.9375 C-0.041875 1.968125 -0.02125 0.99875 0 0 Z " fill="#0B28B1" transform="translate(282,340)"/>
<path d="M0 0 C0.99 0.495 0.99 0.495 2 1 C2.6328125 3.28515625 2.6328125 3.28515625 3.125 6.0625 C3.29257813 6.98160156 3.46015625 7.90070313 3.6328125 8.84765625 C3.75398437 9.55792969 3.87515625 10.26820313 4 11 C3.01 11.33 2.02 11.66 1 12 C0 11 0 11 -0.09765625 8.49609375 C-0.08605469 7.48675781 -0.07445312 6.47742188 -0.0625 5.4375 C-0.05347656 4.42558594 -0.04445312 3.41367187 -0.03515625 2.37109375 C-0.02355469 1.58863281 -0.01195312 0.80617188 0 0 Z " fill="#166BD6" transform="translate(248,261)"/>
<path d="M0 0 C1.53445094 3.06890187 0.54984289 5.70094266 0 9 C3.3 9.33 6.6 9.66 10 10 C9.67 10.66 9.34 11.32 9 12 C7.52031676 11.85950482 6.04125484 11.71245174 4.5625 11.5625 C3.73878906 11.48128906 2.91507813 11.40007812 2.06640625 11.31640625 C0 11 0 11 -1 10 C-1.0979057 8.50261876 -1.12974864 7.00057108 -1.125 5.5 C-1.12757813 4.6853125 -1.13015625 3.870625 -1.1328125 3.03125 C-1 1 -1 1 0 0 Z " fill="#1B69D8" transform="translate(211,226)"/>
<path d="M0 0 C5.54688746 -0.34668047 10.03846491 0.37901516 15 3 C16.734375 4.60546875 16.734375 4.60546875 18 6 C15.03 5.505 15.03 5.505 12 5 C12 4.34 12 3.68 12 3 C10.948125 2.855625 9.89625 2.71125 8.8125 2.5625 C5.84539451 2.12473034 2.93205634 1.62195134 0 1 C0 0.67 0 0.34 0 0 Z " fill="#2C85E3" transform="translate(258,190)"/>
<path d="M0 0 C0 0.66 0 1.32 0 2 C-5.33727881 2.67774969 -10.61180582 3.32988944 -16 3 C-16.66 2.34 -17.32 1.68 -18 1 C-11.93303301 0.22959149 -6.11485027 -0.09706112 0 0 Z " fill="#6FB1D6" transform="translate(270,145)"/>
<path d="M0 0 C0.99 0.33 1.98 0.66 3 1 C3.6875 3.0625 3.6875 3.0625 4 5 C0.86501708 6.85776765 -1.37471432 7.20140476 -5 7 C-5 6.34 -5 5.68 -5 5 C-3.35 4.67 -1.7 4.34 0 4 C0 2.68 0 1.36 0 0 Z " fill="#217AC2" transform="translate(227,202)"/>
<path d="M0 0 C6.14961761 1.68089548 10.3575305 3.59560586 15 8 C11.32101633 8 9.58071335 6.89279443 6.375 5.125 C5.39273437 4.59132812 4.41046875 4.05765625 3.3984375 3.5078125 C1 2 1 2 0 0 Z " fill="#2C87E3" transform="translate(274,185)"/>
<path d="M0 0 C5.78461538 4.30769231 5.78461538 4.30769231 6.875 7.8125 C6.936875 8.8953125 6.936875 8.8953125 7 10 C4.5 8.625 4.5 8.625 2 7 C2 6.34 2 5.68 2 5 C1.34 4.67 0.68 4.34 0 4 C0 2.68 0 1.36 0 0 Z " fill="#3DA2D6" transform="translate(315,166)"/>
<path d="M0 0 C2.4375 0.375 2.4375 0.375 5 1 C5.33 1.66 5.66 2.32 6 3 C5.01 3.33 4.02 3.66 3 4 C2.34 4.66 1.68 5.32 1 6 C-0.32 5.34 -1.64 4.68 -3 4 C-2.01 2.68 -1.02 1.36 0 0 Z " fill="#081FB1" transform="translate(276,346)"/>
<path d="M0 0 C2 3 2 3 2 6 C2.31088368 7.67099977 2.64080332 9.33871537 3 11 C0.525 10.01 0.525 10.01 -2 9 C-2.20140476 5.37471432 -1.85776765 3.13498292 0 0 Z " fill="#0A0FA5" transform="translate(231,334)"/>
<path d="M0 0 C0.33 0.66 0.66 1.32 1 2 C1.66 2 2.32 2 3 2 C3.33 3.32 3.66 4.64 4 6 C3.01 6.66 2.02 7.32 1 8 C0.01 7.67 -0.98 7.34 -2 7 C-2 5.68 -2 4.36 -2 3 C-1.34 3 -0.68 3 0 3 C0 2.01 0 1.02 0 0 Z " fill="#147CFA" transform="translate(281,294)"/>
<path d="M0 0 C2.625 -0.1875 2.625 -0.1875 5 0 C5 0.99 5 1.98 5 3 C5.66 3.33 6.32 3.66 7 4 C3.625 4.625 3.625 4.625 0 5 C-0.66 4.34 -1.32 3.68 -2 3 C-1.34 2.01 -0.68 1.02 0 0 Z " fill="#2178D8" transform="translate(208,170)"/>
<path d="M0 0 C1.32 0 2.64 0 4 0 C4.33 0.99 4.66 1.98 5 3 C4.01 4.485 4.01 4.485 3 6 C1.68 5.34 0.36 4.68 -1 4 C-0.67 2.68 -0.34 1.36 0 0 Z " fill="#142585" transform="translate(158,260)"/>
<path d="M0 0 C2.31 0 4.62 0 7 0 C6.38125 0.28875 5.7625 0.5775 5.125 0.875 C2.86674235 1.93720042 2.86674235 1.93720042 1 4 C1.3269756 6.61580479 1.82039068 8.64078137 3 11 C1.68 10.67 0.36 10.34 -1 10 C-1.125 3.375 -1.125 3.375 0 0 Z " fill="#2F75CB" transform="translate(212,225)"/>
<path d="M0 0 C2.0625 0.4375 2.0625 0.4375 4 1 C3.67 2.65 3.34 4.3 3 6 C2.01 6 1.02 6 0 6 C-0.38218767 4.34385343 -0.71395102 2.67542976 -1 1 C-0.67 0.67 -0.34 0.34 0 0 Z " fill="#133D91" transform="translate(157,206)"/>
<path d="M0 0 C0.66 0.33 1.32 0.66 2 1 C1.401875 1.268125 0.80375 1.53625 0.1875 1.8125 C-2.04383612 2.85257915 -2.04383612 2.85257915 -3.375 4.625 C-5.80395238 6.6802674 -7.93373089 6.20441794 -11 6 C-7.57874946 3.12614955 -4.16111563 1.54115394 0 0 Z " fill="#2C78DF" transform="translate(250,191)"/>
<path d="M0 0 C2.0625 0.4375 2.0625 0.4375 4 1 C3.34 2.65 2.68 4.3 2 6 C1.34 6 0.68 6 0 6 C0 7.32 0 8.64 0 10 C-0.99 9.67 -1.98 9.34 -3 9 C-2.34 7.35 -1.68 5.7 -1 4 C-0.34 4 0.32 4 1 4 C1 3.34 1 2.68 1 2 C0.34 1.67 -0.32 1.34 -1 1 C-0.67 0.67 -0.34 0.34 0 0 Z " fill="#1B67C2" transform="translate(193,194)"/>
<path d="M0 0 C3.63515926 1.00976646 4.95669389 1.94643718 7.375 4.9375 C7.91125 5.948125 8.4475 6.95875 9 8 C8.67 8.99 8.34 9.98 8 11 C6.85204994 9.5433323 5.70670581 8.08461063 4.5625 6.625 C3.60537109 5.40683594 3.60537109 5.40683594 2.62890625 4.1640625 C1 2 1 2 0 0 Z " fill="#1E59C3" transform="translate(281,190)"/>
<path d="M0 0 C0.99 0.33 1.98 0.66 3 1 C2.67 2.32 2.34 3.64 2 5 C-0.64 4.67 -3.28 4.34 -6 4 C-6 3.67 -6 3.34 -6 3 C-5.195625 2.87625 -4.39125 2.7525 -3.5625 2.625 C-2.716875 2.41875 -1.87125 2.2125 -1 2 C-0.67 1.34 -0.34 0.68 0 0 Z " fill="#1263F0" transform="translate(297,305)"/>
<path d="M0 0 C0.66 0.33 1.32 0.66 2 1 C0.99382318 3.67576692 0.45785454 4.7785108 -2.1640625 6.046875 C-2.97617188 6.27890625 -3.78828125 6.5109375 -4.625 6.75 C-5.85089844 7.11351562 -5.85089844 7.11351562 -7.1015625 7.484375 C-8.04128906 7.73960937 -8.04128906 7.73960937 -9 8 C-6.14723863 5.06799526 -3.34920216 2.35684596 0 0 Z " fill="#2C50B6" transform="translate(213,290)"/>
<path d="M0 0 C2.475 0.495 2.475 0.495 5 1 C4.67 2.32 4.34 3.64 4 5 C2.68 5 1.36 5 0 5 C0 3.35 0 1.7 0 0 Z " fill="#2B5299" transform="translate(167,186)"/>
<path d="M0 0 C1.32 0.66 2.64 1.32 4 2 C4 2.99 4 3.98 4 5 C-0.75 4.25 -0.75 4.25 -3 2 C-2.01 1.34 -1.02 0.68 0 0 Z " fill="#0927BD" transform="translate(204,320)"/>
<path d="M0 0 C-0.928125 0.495 -0.928125 0.495 -1.875 1 C-5.01584125 3.95608588 -5.17558202 6.80920859 -6 11 C-7.1577506 7.52674819 -7.06866652 4.63932552 -7 1 C-3.375 -1.125 -3.375 -1.125 0 0 Z " fill="#152C85" transform="translate(209,278)"/>
<path d="M0 0 C0.33 0.66 0.66 1.32 1 2 C-2.21451269 3.60725635 -5.43612536 3.05748185 -9 3 C-7.14340032 -0.71319936 -3.69365381 -0.09982848 0 0 Z " fill="#2174D8" transform="translate(333,256)"/>
<path d="M0 0 C1.98 0.99 3.96 1.98 6 3 C5.67 3.66 5.34 4.32 5 5 C3.02 5 1.04 5 -1 5 C-0.67 3.35 -0.34 1.7 0 0 Z " fill="#0F20A6" transform="translate(243,244)"/>
<path d="M0 0 C1 2 1 2 1 6 C-2.69900008 5.11223998 -6.34550461 4.05418136 -10 3 C-8 2 -8 2 -5 2.0625 C-1.88232786 2.34381131 -1.88232786 2.34381131 0 0 Z " fill="#0D5AC3" transform="translate(222,235)"/>
<path d="M0 0 C-4.96993194 2.43425238 -8.34605369 3.34615998 -14 3 C-11.39395012 1.26263341 -9.92766764 0.54996173 -7 -0.1875 C-6.319375 -0.36667969 -5.63875 -0.54585937 -4.9375 -0.73046875 C-3 -1 -3 -1 0 0 Z " fill="#7CB5DA" transform="translate(251,148)"/>
<path d="M0 0 C0.99 0.33 1.98 0.66 3 1 C1.02 3.97 1.02 3.97 -1 7 C-2.5 5.6875 -2.5 5.6875 -4 4 C-4 3.01 -4 2.02 -4 1 C-3.01 1.33 -2.02 1.66 -1 2 C-0.67 1.34 -0.34 0.68 0 0 Z " fill="#0D2EBC" transform="translate(229,320)"/>
<path d="M0 0 C1.32 0 2.64 0 4 0 C4 2.31 4 4.62 4 7 C2.68 6.67 1.36 6.34 0 6 C0 4.02 0 2.04 0 0 Z " fill="#0E1CA4" transform="translate(197,282)"/>
<path d="M0 0 C2.73789749 1.00389575 3.82231282 1.6953934 5.3125 4.25 C6.12420931 7.49683722 5.75200013 9.76639943 5 13 C4.67 13 4.34 13 4 13 C3.87882813 12.39671875 3.75765625 11.7934375 3.6328125 11.171875 C3.46523437 10.37265625 3.29765625 9.5734375 3.125 8.75 C2.96257812 7.96109375 2.80015625 7.1721875 2.6328125 6.359375 C2.00849925 4.03168856 1.15161458 2.10968048 0 0 Z " fill="#295FB1" transform="translate(239,247)"/>
<path d="M0 0 C2.0625 1.75 2.0625 1.75 4 4 C3.75 6.25 3.75 6.25 3 8 C2.34 8 1.68 8 1 8 C0.67 5.36 0.34 2.72 0 0 Z " fill="#2468DA" transform="translate(244,251)"/>
<path d="M0 0 C0.99 0 1.98 0 3 0 C3.33 2.97 3.66 5.94 4 9 C3.67 8.01 3.34 7.02 3 6 C2.34 6 1.68 6 1 6 C0.67 4.02 0.34 2.04 0 0 Z " fill="#081196" transform="translate(302,244)"/>
<path d="M0 0 C2.97 0.33 5.94 0.66 9 1 C9 1.33 9 1.66 9 2 C7.02 2 5.04 2 3 2 C3 2.99 3 3.98 3 5 C2.01 4.67 1.02 4.34 0 4 C0 2.68 0 1.36 0 0 Z " fill="#1936AB" transform="translate(169,245)"/>
<path d="M0 0 C0.33 0.99 0.66 1.98 1 3 C-2.3 3 -5.6 3 -9 3 C-4.5 0 -4.5 0 0 0 Z " fill="#1443AC" transform="translate(184,217)"/>
<path d="M0 0 C2 3 2 3 2 5 C0.02 5 -1.96 5 -4 5 C-4.33 5.66 -4.66 6.32 -5 7 C-5 6.01 -5 5.02 -5 4 C-2.5 1.8125 -2.5 1.8125 0 0 Z " fill="#93C1E4" transform="translate(217,160)"/>
<path d="M0 0 C2.64 0.99 5.28 1.98 8 3 C8 3.33 8 3.66 8 4 C4.7 4 1.4 4 -2 4 C-1.34 2.68 -0.68 1.36 0 0 Z " fill="#0F54E7" transform="translate(304,308)"/>
<path d="M0 0 C0.66 0.33 1.32 0.66 2 1 C2 1.66 2 2.32 2 3 C2.99 2.67 3.98 2.34 5 2 C5 3.32 5 4.64 5 6 C1.34683329 4.75023244 0.21934164 4.32901247 -2 1 C-1.34 0.67 -0.68 0.34 0 0 Z " fill="#1870EB" transform="translate(277,298)"/>
<path d="M0 0 C0.33 0.66 0.66 1.32 1 2 C0.0625 4.125 0.0625 4.125 -1 6 C-2.98 6 -4.96 6 -7 6 C-6.21625 5.38125 -5.4325 4.7625 -4.625 4.125 C-2.03162353 2.10141339 -2.03162353 2.10141339 0 0 Z " fill="#3466B8" transform="translate(230,278)"/>
<path d="M0 0 C0.99 0.33 1.98 0.66 3 1 C3 2.65 3 4.3 3 6 C1.02 5.01 -0.96 4.02 -3 3 C-2.01 2.01 -1.02 1.02 0 0 Z " fill="#0D258B" transform="translate(236,241)"/>
<path d="M0 0 C3.48331435 3.01887244 4.79157144 5.56909529 6 10 C5.01 9.67 4.02 9.34 3 9 C3 7.68 3 6.36 3 5 C2.34 5 1.68 5 1 5 C0.67 3.35 0.34 1.7 0 0 Z " fill="#2E82E3" transform="translate(281,202)"/>
<path d="M0 0 C0.33 0 0.66 0 1 0 C1 2.97 1 5.94 1 9 C-0.32 8.34 -1.64 7.68 -3 7 C-3 6.01 -3 5.02 -3 4 C-2.01 4 -1.02 4 0 4 C0 2.68 0 1.36 0 0 Z " fill="#1A6BAB" transform="translate(193,200)"/>
<path d="M0 0 C2.1519437 3.22791555 2.20086443 4.28400809 2 8 C1.01 8 0.02 8 -1 8 C-1.04241723 5.66705225 -1.04092937 3.33297433 -1 1 C-0.67 0.67 -0.34 0.34 0 0 Z " fill="#0F3996" transform="translate(332,193)"/>
<path d="M0 0 C3.3 0 6.6 0 10 0 C10 0.33 10 0.66 10 1 C8.741875 1.268125 7.48375 1.53625 6.1875 1.8125 C3.00551199 2.59532537 0.99755689 3.25335928 -1 6 C-0.67 4.02 -0.34 2.04 0 0 Z " fill="#3385EB" transform="translate(206,174)"/>
<path d="M0 0 C2.91517292 1.07401108 4.77810176 1.77810176 7 4 C7.625 6.125 7.625 6.125 8 8 C6.85073734 7.04578192 5.70569459 6.08647955 4.5625 5.125 C3.92441406 4.59132812 3.28632813 4.05765625 2.62890625 3.5078125 C1 2 1 2 0 0 Z " fill="#0D60BD" transform="translate(249,224)"/>
<path d="M0 0 C4.13333333 6.2 4.13333333 6.2 3.625 9.25 C3.41875 9.8275 3.2125 10.405 3 11 C3 10.01 3 9.02 3 8 C2.34 8 1.68 8 1 8 C-0.35439668 5.29120665 -0.06501451 2.99066732 0 0 Z " fill="#2968AD" transform="translate(188,191)"/>
<path d="M0 0 C1.35015859 4.05047576 0.62084998 6.7920168 0 11 C-1.77084117 8.29165469 -2.01052504 7.10735541 -1.6875 3.8125 C-1 1 -1 1 0 0 Z " fill="#1D77D7" transform="translate(205,175)"/>
<path d="M0 0 C1.32 0.33 2.64 0.66 4 1 C0.535 3.97 0.535 3.97 -3 7 C-3 6.01 -3 5.02 -3 4 C-2.34 4 -1.68 4 -1 4 C-0.67 2.68 -0.34 1.36 0 0 Z " fill="#1637C2" transform="translate(235,313)"/>
<path d="M0 0 C0.99 0.33 1.98 0.66 3 1 C4.1875 3.5625 4.1875 3.5625 5 6 C3.02 5.01 1.04 4.02 -1 3 C-0.67 2.01 -0.34 1.02 0 0 Z " fill="#2584F1" transform="translate(275,285)"/>
<path d="M0 0 C2.70272533 2.87164566 3.94791837 4.30991841 4.25 8.3125 C4.1675 9.199375 4.085 10.08625 4 11 C1.73030256 8.73030256 1.00868171 7.02604513 0 4 C0 2.68 0 1.36 0 0 Z " fill="#1D49BF" transform="translate(305,244)"/>
<path d="M0 0 C1.98 0.495 1.98 0.495 4 1 C3.67 1.99 3.34 2.98 3 4 C0.9375 4.6875 0.9375 4.6875 -1 5 C-0.67 3.35 -0.34 1.7 0 0 Z " fill="#122DA0" transform="translate(153,231)"/>
<path d="M0 0 C2.12508244 3.18762365 2.5020163 5.26512223 3 9 C0.9375 7.3125 0.9375 7.3125 -1 5 C-0.75 2.25 -0.75 2.25 0 0 Z " fill="#2660BB" transform="translate(329,185)"/>
</svg>
