<?xml version="1.0" encoding="UTF-8" standalone="no"?>
<svg 
  version="1.1" 
  xmlns="http://www.w3.org/2000/svg" 
  xmlns:xlink="http://www.w3.org/1999/xlink" 
  xmlns:svg="http://www.w3.org/2000/svg"
  xmlns:rdf="http://www.w3.org/1999/02/22-rdf-syntax-ns#"
  xmlns:cc="http://creativecommons.org/ns#"
  xmlns:dc="http://purl.org/dc/elements/1.1/"
  viewBox="0 0 768 768"
  width="768"
  height="768"
>
<style>svg {background-color: white; }</style>"
<metadata id="metadata1">
Created by https://svgstud.io and licensed under CC-BY-SA 4.0 license. Please attribute https://svgstud.io
</metadata>
<metadata id="prompt">
yoga sleep
</metadata>
<metadata id="version">
7
</metadata>
<metadata id="metadata2">
<rdf:RDF>
<cc:Work
    rdf:about="">
    <cc:license
    rdf:resource="http://creativecommons.org/licenses/by-sa/4.0/" />
    <dc:creator>
        <cc:Agent>
            <dc:title>https://svgstud.io</dc:title>
        </cc:Agent>
    </dc:creator>
</cc:Work>
<cc:License
    rdf:about="http://creativecommons.org/licenses/by-sa/4.0/">
    <cc:permits
    rdf:resource="http://creativecommons.org/ns#Reproduction" />
    <cc:permits
    rdf:resource="http://creativecommons.org/ns#Distribution" />
    <cc:requires
    rdf:resource="http://creativecommons.org/ns#Notice" />
    <cc:requires
    rdf:resource="http://creativecommons.org/ns#Attribution" />
    <cc:permits
    rdf:resource="http://creativecommons.org/ns#DerivativeWorks" />
    <cc:requires
    rdf:resource="http://creativecommons.org/ns#ShareAlike" />
</cc:License>
</rdf:RDF>
</metadata>
<metadata id="uid">
0e86e8be37469380dbe8de9a0203761e48a28b4d2f062eb4abfd1d67ccec98af
</metadata>
<path stroke="none" fill="black" fill-rule="evenodd" d="M414.00,658.47C402.73,658.64 391.48,658.59 389.00,658.35C386.52,658.11 377.07,656.78 368.00,655.38C358.93,653.98 345.43,651.48 338.00,649.81C330.58,648.15 318.48,644.79 311.11,642.35C303.75,639.92 293.40,636.09 288.11,633.84C282.83,631.59 274.61,627.81 269.86,625.42C265.11,623.04 257.01,618.55 251.86,615.44C246.71,612.34 239.23,607.35 235.23,604.36C231.24,601.37 224.83,596.22 220.99,592.92C217.15,589.61 213.30,585.54 212.43,583.86C211.56,582.19 211.09,580.58 211.38,580.29C211.67,580.00 212.98,580.03 214.29,580.36C215.60,580.69 221.58,583.94 227.58,587.59C233.59,591.24 242.78,596.38 248.00,599.01C253.22,601.64 261.77,605.59 267.00,607.78C272.23,609.97 280.46,613.20 285.29,614.96C290.13,616.72 299.35,619.71 305.79,621.61C312.23,623.51 321.77,625.93 327.00,626.99C332.23,628.06 341.00,629.64 346.50,630.51C352.00,631.38 364.15,632.35 373.50,632.67C383.31,633.00 395.67,632.77 402.72,632.12C409.44,631.50 417.20,630.51 419.96,629.92C422.72,629.32 425.98,628.02 427.21,627.03C429.43,625.23 429.45,625.04 429.18,600.36C429.03,586.69 428.65,574.03 428.34,572.23C428.02,570.42 426.82,568.29 425.66,567.48C423.84,566.20 410.56,565.99 328.03,565.94C275.49,565.91 227.95,565.55 222.39,565.13C214.33,564.53 211.09,563.79 206.39,561.52C201.99,559.38 197.34,555.47 188.00,546.07C181.12,539.14 172.62,529.66 169.09,524.99C165.57,520.32 161.79,514.49 160.70,512.03C159.57,509.49 158.71,505.39 158.71,502.51C158.71,499.71 159.47,495.99 160.41,494.17C161.35,492.36 164.18,489.58 166.70,487.98C169.22,486.38 176.06,483.06 181.89,480.60C187.73,478.14 197.56,474.61 203.75,472.74C214.80,469.40 215.06,469.26 218.16,464.58C219.89,461.96 223.60,458.29 226.41,456.44C229.21,454.58 234.13,452.15 237.35,451.05C240.56,449.94 246.41,448.38 250.35,447.57C254.28,446.77 265.35,445.39 274.95,444.52C284.54,443.65 292.57,442.77 292.78,442.55C293.00,442.34 291.51,438.19 289.47,433.33C287.43,428.47 285.14,422.25 284.37,419.50C283.15,415.13 283.23,409.64 285.00,376.17C286.11,355.09 287.68,333.15 288.49,327.41C289.30,321.67 290.91,314.75 292.08,312.02C293.31,309.19 296.32,305.11 299.14,302.47C301.85,299.94 306.41,296.83 309.28,295.56C312.15,294.29 321.02,291.16 329.00,288.60C336.98,286.04 344.18,283.50 345.00,282.95C346.28,282.10 346.18,281.71 344.29,280.23C343.08,279.28 340.04,277.22 337.53,275.66C335.02,274.10 331.78,271.27 330.33,269.37C328.61,267.11 327.54,264.23 327.23,261.03C326.86,257.15 327.20,255.53 328.88,253.17C330.05,251.53 331.00,249.22 331.00,248.03C331.00,246.83 329.72,243.98 328.15,241.68C326.59,239.38 324.45,235.25 323.40,232.50C321.82,228.35 321.50,224.82 321.50,211.75C321.50,203.09 321.27,196.01 321.00,196.02C320.73,196.03 316.68,198.09 312.00,200.59C307.33,203.10 299.95,207.71 295.60,210.83C291.24,213.95 283.59,220.15 278.59,224.60C273.59,229.06 266.35,236.41 262.50,240.93C258.65,245.46 252.87,253.06 249.66,257.83C246.45,262.60 241.59,271.11 238.86,276.75C236.12,282.39 232.52,290.94 230.85,295.75C229.18,300.56 226.98,308.32 225.96,313.00C224.93,317.68 223.59,326.60 222.97,332.83C222.14,341.11 222.13,347.37 222.92,356.03C223.52,362.56 224.70,370.96 225.56,374.70C226.41,378.44 228.44,385.67 230.06,390.76C231.68,395.86 232.99,400.81 232.98,401.76C232.97,402.89 230.42,404.87 225.73,407.38C221.75,409.51 214.88,413.61 210.45,416.48C206.02,419.35 198.66,424.92 194.11,428.85C189.55,432.78 184.98,436.00 183.96,436.00C182.60,436.00 180.97,433.63 177.94,427.25C175.65,422.44 172.28,414.00 170.45,408.50C168.61,403.00 166.10,393.77 164.85,388.00C162.88,378.82 162.59,374.55 162.55,354.00C162.52,335.85 162.92,328.11 164.31,320.00C165.29,314.23 166.76,306.57 167.58,303.00C168.39,299.43 170.44,292.23 172.12,287.00C173.81,281.77 176.32,274.80 177.71,271.50C179.09,268.20 182.89,260.16 186.15,253.64C189.41,247.11 194.42,238.11 197.29,233.64C200.15,229.16 205.98,221.12 210.24,215.77C214.50,210.42 221.47,202.58 225.74,198.35C230.01,194.12 238.00,186.87 243.50,182.23C249.00,177.60 258.85,170.25 265.39,165.90C271.93,161.55 282.28,155.55 288.39,152.56C294.50,149.57 304.03,145.34 309.56,143.15C315.10,140.96 323.88,138.01 329.06,136.60C334.25,135.19 343.90,133.10 350.50,131.95C358.07,130.63 369.15,129.66 380.50,129.31C394.16,128.90 401.27,129.16 409.97,130.38C416.27,131.27 422.04,132.61 422.79,133.36C423.94,134.51 423.91,136.11 422.62,143.62C421.77,148.52 420.15,155.55 419.00,159.26C417.26,164.91 416.56,166.00 414.71,166.01C413.49,166.01 409.01,165.48 404.76,164.83C400.50,164.19 396.71,163.96 396.34,164.33C395.96,164.70 398.22,167.60 401.35,170.76C404.47,173.93 408.38,178.54 410.03,181.01C411.68,183.48 413.87,188.20 414.88,191.50C415.90,194.80 417.76,203.32 419.01,210.42C421.01,221.80 421.14,224.13 420.09,229.81C419.44,233.37 418.02,238.00 416.95,240.10C415.88,242.20 415.00,244.96 415.00,246.23C415.00,247.50 416.12,250.19 417.50,252.21C418.96,254.36 420.00,257.31 420.00,259.31C420.00,261.65 418.98,264.00 416.75,266.81C414.96,269.07 411.57,272.39 409.21,274.20C406.30,276.43 405.02,278.12 405.21,279.47C405.44,281.06 408.18,282.35 419.00,285.99C426.43,288.49 435.10,292.03 438.28,293.86C441.46,295.69 445.42,298.33 447.08,299.72C448.74,301.12 451.20,304.44 452.56,307.11C453.91,309.78 455.45,315.23 455.97,319.23C456.50,323.23 457.85,339.32 458.99,355.00C460.12,370.68 461.71,389.94 462.51,397.80C463.58,408.13 463.70,413.36 462.98,416.60C462.42,419.07 459.27,426.48 455.97,433.06C449.97,445.04 449.97,445.04 452.55,446.02C453.97,446.56 461.51,447.00 469.32,447.00C477.12,447.00 488.45,447.46 494.50,448.01C500.55,448.57 508.65,449.95 512.50,451.09C516.35,452.22 522.50,454.91 526.16,457.07C529.83,459.22 535.63,463.79 539.07,467.23C542.82,470.98 546.40,475.79 548.07,479.31C549.59,482.53 551.14,487.35 551.50,490.02C551.96,493.36 551.65,496.69 550.52,500.58C549.24,504.97 547.67,507.46 543.60,511.53C540.70,514.43 535.94,518.01 533.00,519.50C530.07,520.98 524.94,522.59 521.59,523.07C518.24,523.56 459.48,523.96 391.00,523.97C321.78,523.98 261.19,523.57 254.55,523.05C243.86,522.20 241.82,521.72 235.35,518.52C230.33,516.04 226.70,513.34 223.53,509.72C221.02,506.85 218.12,502.25 217.09,499.50C216.06,496.75 214.90,491.09 214.51,486.91C213.80,479.33 213.80,479.33 202.15,483.53C195.74,485.85 188.13,488.69 185.23,489.86C182.33,491.03 177.73,493.12 175.00,494.50C172.27,495.88 169.33,498.10 168.46,499.43C167.17,501.39 167.08,502.57 167.95,505.83C168.54,508.02 170.98,512.45 173.37,515.66C175.76,518.87 180.89,524.55 184.78,528.27C188.67,532.00 193.92,535.96 196.44,537.08C198.96,538.19 205.18,539.62 210.26,540.25C216.84,541.06 265.86,541.41 380.50,541.45C541.50,541.50 541.50,541.50 549.57,538.76C554.74,537.01 564.07,532.15 575.57,525.23C585.43,519.29 596.42,512.47 600.00,510.08C603.58,507.68 607.96,504.35 609.75,502.67C612.13,500.43 613.00,498.73 613.00,496.34C613.00,494.26 612.18,492.30 610.75,490.93C609.51,489.75 603.57,485.57 597.54,481.64C591.51,477.71 581.41,471.35 575.10,467.50C568.79,463.65 563.43,459.87 563.18,459.11C562.84,458.04 563.41,457.88 565.62,458.40C567.20,458.77 571.20,460.39 574.50,461.99C577.80,463.59 583.14,466.50 586.37,468.45C589.60,470.40 592.79,472.00 593.47,472.00C594.14,472.00 596.79,468.57 599.35,464.38C601.91,460.19 604.00,456.42 604.00,456.00C604.00,455.58 602.09,454.75 599.75,454.15C596.94,453.42 592.28,450.44 586.00,445.36C580.77,441.12 572.90,435.32 568.50,432.46C564.10,429.60 557.12,425.43 553.00,423.19C548.88,420.94 540.53,417.12 534.47,414.68C528.40,412.25 519.49,409.05 514.67,407.58C509.85,406.11 505.68,404.33 505.41,403.63C505.14,402.93 506.72,398.45 508.92,393.68C511.12,388.90 514.26,381.05 515.90,376.24C517.54,371.43 519.89,362.77 521.12,357.00C522.82,349.02 523.37,343.01 523.41,332.00C523.46,321.58 522.96,315.11 521.66,309.02C520.66,304.36 518.54,296.49 516.95,291.52C515.35,286.56 512.24,278.97 510.03,274.66C507.82,270.34 503.43,263.14 500.28,258.66C497.13,254.17 490.31,246.11 485.12,240.74C479.93,235.37 471.59,227.92 466.59,224.17C461.59,220.42 454.80,215.75 451.50,213.79C448.20,211.83 442.57,208.76 439.00,206.98C435.43,205.20 432.14,203.24 431.70,202.62C431.26,202.00 431.17,199.03 431.51,196.00C431.85,192.97 432.67,186.45 433.34,181.50C434.54,172.50 434.54,172.50 438.75,172.69C441.06,172.79 447.80,174.51 453.73,176.50C459.65,178.50 470.97,183.26 478.88,187.08C486.79,190.90 497.59,196.88 502.88,200.36C508.17,203.84 516.55,209.84 521.50,213.69C526.45,217.53 535.41,225.36 541.41,231.09C547.41,236.82 555.84,245.69 560.15,250.81C564.46,255.93 570.88,264.51 574.42,269.87C577.95,275.24 583.55,285.00 586.85,291.56C590.15,298.13 594.62,308.68 596.79,315.00C598.96,321.32 601.68,330.55 602.83,335.50C603.98,340.45 605.62,349.81 606.46,356.30C607.31,362.79 608.00,374.12 608.00,381.48C608.00,389.08 607.13,401.54 605.99,410.32C604.75,419.88 604.31,426.65 604.83,428.06C605.35,429.47 605.93,429.92 606.36,429.23C606.74,428.61 609.90,420.55 613.39,411.31C616.88,402.06 621.85,390.00 624.43,384.50C628.72,375.37 629.25,374.66 630.51,376.36C631.27,377.39 632.90,382.34 634.14,387.36C635.99,394.86 636.41,399.38 636.45,412.50C636.49,424.46 636.01,430.97 634.56,438.26C633.15,445.41 632.93,448.33 633.74,449.14C634.55,449.95 635.51,448.93 637.32,445.35C638.69,442.66 640.78,437.54 641.97,433.98C643.16,430.42 645.26,422.32 646.65,416.00C648.71,406.57 649.26,400.82 649.69,384.00C650.09,368.26 649.83,360.60 648.57,351.00C647.67,344.12 645.77,333.32 644.36,327.00C642.95,320.68 640.10,310.55 638.02,304.50C635.95,298.45 632.78,289.70 630.98,285.06C629.18,280.42 624.93,271.20 621.54,264.56C618.15,257.93 612.59,248.10 609.20,242.72C605.80,237.34 599.10,227.66 594.30,221.22C589.26,214.46 579.21,203.12 570.54,194.42C562.27,186.12 551.67,176.30 547.00,172.59C542.33,168.87 533.55,162.56 527.50,158.55C521.45,154.55 511.09,148.33 504.48,144.74C497.86,141.14 487.51,136.08 481.48,133.48C475.44,130.89 463.30,126.38 454.50,123.46C445.70,120.55 433.10,117.03 426.50,115.65C419.90,114.27 409.77,112.64 404.00,112.02C398.23,111.40 391.17,110.67 388.32,110.39C383.66,109.92 383.08,109.60 382.61,107.19C382.33,105.71 382.01,100.67 381.92,96.00C381.82,91.33 381.80,86.94 381.87,86.25C381.97,85.31 385.79,85.00 397.26,85.00C405.65,85.00 418.33,85.68 425.44,86.51C432.55,87.34 444.03,89.16 450.94,90.54C457.85,91.93 468.00,94.42 473.50,96.08C479.00,97.73 488.68,100.98 495.00,103.28C501.32,105.59 513.02,110.67 521.00,114.58C528.98,118.48 540.39,124.68 546.36,128.34C552.34,132.00 563.30,139.56 570.71,145.12C578.13,150.69 590.08,160.93 597.26,167.87C604.45,174.82 614.64,185.68 619.92,192.00C625.19,198.32 633.39,209.35 638.14,216.50C642.89,223.65 649.68,234.90 653.22,241.50C656.76,248.10 661.28,257.10 663.26,261.50C665.24,265.90 668.18,272.88 669.81,277.00C671.43,281.12 674.17,288.91 675.90,294.31C677.62,299.70 680.35,310.73 681.97,318.81C683.59,326.89 685.38,338.90 685.95,345.50C686.51,352.10 686.98,364.70 686.99,373.50C686.99,382.30 686.54,394.45 685.98,400.50C685.42,406.55 684.25,415.77 683.38,421.00C682.51,426.23 680.52,435.45 678.96,441.50C677.40,447.55 675.01,455.88 673.66,460.00C672.31,464.12 670.07,470.43 668.69,474.00C667.30,477.57 664.55,484.28 662.56,488.89C660.58,493.51 655.75,503.18 651.83,510.39C647.91,517.60 642.44,526.88 639.67,531.00C636.90,535.12 631.53,542.55 627.72,547.50C623.92,552.45 617.24,560.61 612.86,565.63C608.49,570.65 601.22,578.09 596.71,582.17C592.19,586.26 585.35,592.10 581.50,595.17C577.65,598.23 570.67,603.43 566.00,606.72C561.33,610.01 553.00,615.38 547.50,618.67C542.00,621.95 533.45,626.70 528.50,629.23C523.55,631.75 515.67,635.40 511.00,637.32C506.32,639.25 497.10,642.70 490.50,644.98C483.90,647.26 474.00,650.23 468.50,651.58C463.00,652.93 453.10,654.96 446.50,656.09C437.80,657.58 428.87,658.23 414.00,658.47zM143.83,530.00C143.62,530.00 142.49,529.33 141.32,528.52C140.16,527.70 135.17,521.96 130.23,515.77C125.29,509.57 119.15,501.24 116.59,497.26C114.02,493.28 109.50,485.31 106.55,479.55C103.59,473.78 99.31,464.23 97.02,458.32C94.74,452.40 91.15,441.47 89.04,434.02C86.94,426.57 84.17,414.41 82.89,406.99C80.85,395.17 80.57,390.21 80.57,367.00C80.58,346.76 80.98,338.04 82.29,330.09C83.23,324.37 85.58,313.42 87.53,305.76C89.47,298.10 93.32,285.68 96.08,278.17C98.85,270.65 103.52,259.55 106.45,253.50C109.39,247.45 115.41,236.53 119.84,229.24C124.26,221.95 130.56,212.27 133.83,207.74C137.10,203.21 144.08,194.50 149.34,188.39C154.59,182.28 163.53,172.90 169.19,167.55C174.86,162.20 184.72,153.84 191.10,148.97C197.48,144.10 207.16,137.31 212.60,133.88C218.05,130.45 227.68,125.06 234.00,121.91C240.32,118.75 248.39,115.01 251.92,113.58C255.45,112.16 259.39,111.00 260.67,111.00C261.95,111.00 263.00,111.48 263.00,112.08C263.00,112.67 261.74,114.36 260.21,115.83C258.67,117.30 253.17,121.42 247.98,125.00C242.80,128.57 234.71,134.40 230.03,137.94C225.34,141.48 217.55,147.70 212.73,151.78C207.90,155.85 199.84,163.30 194.82,168.34C189.80,173.38 182.00,181.78 177.49,187.00C172.99,192.22 165.90,201.09 161.75,206.69C157.59,212.30 151.65,221.00 148.53,226.04C145.41,231.08 140.23,240.44 137.01,246.85C133.79,253.26 129.83,261.88 128.21,266.00C126.59,270.12 124.34,276.20 123.20,279.50C122.07,282.80 120.23,288.65 119.12,292.50C118.00,296.35 116.18,303.77 115.07,309.00C113.95,314.23 112.36,324.11 111.52,330.97C110.64,338.16 110.00,351.58 110.00,362.67C110.00,374.24 110.61,386.58 111.54,393.66C112.39,400.13 114.01,409.71 115.14,414.96C116.27,420.21 119.25,430.80 121.76,438.50C124.88,448.07 129.30,458.33 135.74,470.95C145.15,489.39 145.15,489.39 143.97,497.73C143.20,503.12 143.04,510.30 143.50,518.04C143.90,524.62 144.05,530.00 143.83,530.00zM315.41,517.92C317.02,517.96 319.69,516.95 321.41,515.65C323.11,514.35 325.99,512.53 327.80,511.59C329.68,510.63 336.59,509.25 343.80,508.41C350.79,507.60 358.30,506.46 360.50,505.89C362.70,505.31 368.77,503.53 374.00,501.93C379.23,500.33 397.45,495.84 414.50,491.96C431.55,488.07 455.40,482.64 467.50,479.90C479.60,477.16 491.07,474.65 493.00,474.32C496.50,473.73 496.50,473.73 493.68,476.74C490.87,479.75 490.87,479.75 509.18,479.26C519.26,478.99 527.89,478.40 528.38,477.96C528.86,477.51 528.95,475.57 528.59,473.63C528.19,471.47 526.74,469.12 524.83,467.51C523.13,466.08 520.01,464.02 517.90,462.95C515.79,461.87 511.51,460.33 508.40,459.52C505.29,458.71 497.96,457.55 492.12,456.96C486.28,456.36 480.04,456.15 478.25,456.48C476.46,456.82 475.00,457.55 475.00,458.10C475.00,458.66 478.15,460.51 482.00,462.21C485.85,463.91 489.00,465.65 489.00,466.08C489.00,466.51 488.21,467.11 487.25,467.41C486.29,467.71 474.93,469.95 462.00,472.39C449.07,474.83 434.90,477.34 430.50,477.97C426.10,478.61 413.33,480.68 402.13,482.57C388.33,484.90 377.84,486.09 369.63,486.26C358.44,486.48 357.26,486.33 354.35,484.25C352.61,483.01 350.26,482.00 349.11,482.00C347.78,482.00 346.86,482.80 346.53,484.25C346.25,485.49 345.90,488.98 345.76,492.00C345.50,497.50 345.50,497.50 333.70,498.66C327.22,499.30 319.65,500.36 316.90,501.02C314.14,501.69 310.56,503.34 308.94,504.70C306.80,506.51 306.00,508.06 306.00,510.43C306.00,512.29 306.75,514.35 307.75,515.21C308.71,516.05 310.18,516.99 311.00,517.29C311.82,517.59 313.81,517.88 315.41,517.92zM225.87,489.99C226.22,489.98 227.25,488.19 228.17,485.99C229.19,483.58 230.83,481.64 232.33,481.06C233.70,480.54 238.57,479.82 243.16,479.45C247.75,479.08 258.70,479.27 267.50,479.87C276.30,480.46 290.66,481.26 299.41,481.63C310.63,482.12 315.12,482.00 314.65,481.24C314.29,480.65 309.15,479.03 303.24,477.63C297.33,476.23 285.75,473.93 277.50,472.51C269.25,471.10 261.04,469.47 259.25,468.89C257.46,468.32 256.00,467.48 256.00,467.03C256.00,466.58 256.70,465.94 257.56,465.61C258.42,465.28 262.13,464.31 265.81,463.45C269.49,462.59 279.43,460.80 287.89,459.47C296.36,458.13 303.49,456.84 303.73,456.60C303.97,456.36 302.91,455.34 301.37,454.33C298.95,452.75 296.52,452.51 283.53,452.60C275.06,452.65 264.57,453.36 259.50,454.23C254.55,455.07 247.25,456.73 243.29,457.91C239.32,459.10 234.19,461.51 231.88,463.28C229.57,465.05 226.77,467.73 225.66,469.24C224.33,471.03 223.48,474.05 223.19,477.99C222.94,481.52 223.27,485.24 224.00,487.00C224.68,488.65 225.53,490.00 225.87,489.99zM359.28,478.94C360.26,478.97 361.34,478.28 361.67,477.41C362.17,476.12 363.15,475.95 366.89,476.54C369.43,476.93 376.68,477.19 383.00,477.12C393.09,476.99 395.13,476.67 399.67,474.45C402.52,473.06 407.49,469.36 410.73,466.21C413.96,463.07 421.13,454.43 426.65,447.00C432.16,439.57 439.22,429.48 442.33,424.57C445.43,419.66 448.26,414.12 448.61,412.25C448.96,410.38 448.98,406.84 448.64,404.38C448.30,401.93 447.50,398.94 446.86,397.74C445.73,395.63 445.50,395.77 440.32,401.53C437.36,404.81 429.90,414.65 423.72,423.38C417.55,432.12 409.80,442.88 406.50,447.30C400.50,455.33 400.50,455.33 392.27,457.97C387.74,459.43 382.90,461.68 381.52,462.98C380.13,464.28 379.00,465.67 379.00,466.06C379.00,466.46 382.89,466.54 387.65,466.24C394.09,465.84 396.12,466.00 395.58,466.86C395.19,467.50 392.98,469.03 390.68,470.26C387.25,472.09 384.89,472.49 377.50,472.49C370.01,472.49 367.77,472.10 364.15,470.17C361.76,468.90 360.12,467.55 360.50,467.18C360.88,466.81 363.72,466.50 366.82,466.50C371.30,466.50 372.52,466.16 372.78,464.81C373.05,463.49 371.36,462.57 365.01,460.56C359.83,458.93 354.59,458.00 350.52,458.00C344.21,458.00 344.09,457.95 340.72,453.75C338.84,451.41 331.72,441.72 324.90,432.20C318.08,422.69 311.19,413.15 309.59,410.99C306.67,407.08 306.67,407.08 307.88,392.29C308.55,384.15 309.76,369.18 310.58,359.00C311.40,348.82 312.80,336.45 313.67,331.50C314.55,326.55 315.65,321.49 316.11,320.25C316.57,319.01 317.37,318.00 317.89,318.00C318.41,318.00 319.07,321.26 319.37,325.25C319.66,329.24 320.39,340.60 320.98,350.50C321.57,360.40 322.48,379.46 322.99,392.86C323.77,412.84 324.26,417.87 325.72,420.86C327.47,424.45 327.58,424.50 333.00,424.27C336.02,424.14 341.43,423.14 345.01,422.06C348.60,420.97 353.64,418.68 356.23,416.97C358.82,415.26 362.46,411.75 364.33,409.18C366.20,406.60 368.89,401.54 370.32,397.93C371.75,394.31 373.46,388.11 374.11,384.16C374.76,380.20 375.02,376.69 374.68,376.35C374.34,376.01 366.67,383.34 357.64,392.65C348.60,401.96 339.60,410.44 337.64,411.49C335.68,412.55 333.73,413.06 333.29,412.63C332.86,412.20 332.34,403.44 332.12,393.17C331.91,382.90 332.26,360.32 332.89,343.00C333.52,325.68 334.27,308.35 334.54,304.50C334.82,300.65 334.66,296.92 334.19,296.22C333.53,295.21 331.41,295.61 324.42,298.06C319.51,299.79 312.84,302.60 309.58,304.33C305.35,306.57 302.85,308.74 300.81,311.96C299.24,314.44 297.54,318.05 297.04,319.98C296.54,321.92 295.66,328.45 295.08,334.50C294.51,340.55 293.35,358.55 292.51,374.50C291.68,390.45 290.73,405.34 290.41,407.59C290.08,409.85 290.28,413.35 290.84,415.37C291.40,417.40 294.35,422.80 297.39,427.38C300.44,431.96 307.84,441.28 313.84,448.10C319.85,454.92 327.26,462.93 330.31,465.90C335.18,470.63 337.19,471.76 346.68,475.09C352.63,477.17 358.30,478.91 359.28,478.94zM422.47,414.02C423.27,413.36 424.85,410.33 425.99,407.30C427.72,402.67 428.21,397.98 429.03,378.14C429.56,365.14 430.43,347.30 430.96,338.50C431.49,329.70 431.99,318.45 432.08,313.50C432.18,308.55 432.20,303.24 432.13,301.70C432.02,299.35 431.16,298.52 426.75,296.46C423.86,295.12 420.65,294.02 419.61,294.01C417.88,294.00 417.77,294.59 418.34,301.25C418.67,305.24 419.22,331.90 419.55,360.50C419.88,389.10 420.35,413.11 420.59,413.86C420.93,414.94 421.33,414.97 422.47,414.02zM377.00,315.80C384.55,315.57 388.51,314.98 391.09,313.70C393.07,312.72 396.60,310.03 398.94,307.71C401.28,305.39 404.31,301.60 405.67,299.29C407.04,296.97 408.00,294.04 407.82,292.79C407.53,290.73 406.82,290.44 400.60,289.91C395.52,289.47 393.35,288.83 392.35,287.47C391.61,286.45 390.99,283.34 390.99,280.56C390.98,277.78 390.70,274.48 390.37,273.24C389.76,270.98 389.76,270.98 386.13,273.24C383.31,275.00 381.06,275.49 376.00,275.46C370.93,275.43 368.35,274.82 364.28,272.71C361.41,271.22 358.83,270.00 358.53,270.00C358.24,270.00 358.00,273.79 358.00,278.43C358.00,284.52 357.59,287.27 356.53,288.33C355.72,289.14 352.83,290.11 350.10,290.49C347.38,290.86 344.39,291.73 343.45,292.41C342.26,293.28 341.97,294.33 342.47,295.92C342.87,297.16 345.96,300.98 349.35,304.41C352.73,307.83 357.98,311.87 361.00,313.37C366.12,315.93 367.23,316.09 377.00,315.80zM377.00,268.30C378.93,267.99 381.62,267.16 383.00,266.45C384.38,265.75 387.37,263.56 389.65,261.59C391.93,259.62 395.21,255.89 396.92,253.30C398.64,250.71 401.16,245.06 402.52,240.75C403.97,236.16 404.99,230.53 404.98,227.20C404.98,224.06 404.64,220.98 404.23,220.35C403.83,219.72 399.98,217.53 395.68,215.49C391.07,213.30 386.23,210.08 383.88,207.64C381.69,205.36 378.74,201.11 377.31,198.19C375.42,194.35 375.01,192.59 375.81,191.79C376.60,191.00 378.56,192.44 382.95,197.03C386.28,200.52 389.00,202.82 389.00,202.15C389.00,201.48 388.05,197.13 386.88,192.49C385.72,187.85 385.03,183.36 385.35,182.52C385.67,181.69 386.70,181.00 387.64,181.00C388.57,181.00 391.78,182.38 394.77,184.07C397.76,185.75 400.47,186.86 400.81,186.53C401.14,186.19 400.55,184.31 399.49,182.35C398.43,180.38 395.35,176.84 392.65,174.47C389.94,172.11 385.51,168.96 382.79,167.48C379.77,165.84 375.65,164.60 372.18,164.29C368.68,163.98 364.26,164.38 360.67,165.32C357.47,166.16 352.35,168.35 349.31,170.18C346.27,172.00 341.77,175.73 339.31,178.45C336.85,181.17 333.97,185.10 332.91,187.18C331.85,189.26 330.26,194.00 329.38,197.73C328.44,201.70 327.78,208.85 327.78,215.00C327.78,220.78 328.30,226.80 328.92,228.39C329.54,229.98 330.31,231.03 330.61,230.72C330.92,230.41 331.60,226.64 332.13,222.33C332.72,217.51 334.19,212.13 335.95,208.33C338.12,203.67 341.72,199.17 350.56,190.07C357.01,183.42 363.84,177.02 365.73,175.86C369.17,173.73 369.17,173.73 371.22,175.78C372.60,177.15 373.27,179.13 373.27,181.78C373.27,184.26 371.93,188.51 369.67,193.22C367.68,197.34 364.04,202.96 361.57,205.71C358.83,208.75 354.30,212.17 350.02,214.42C346.14,216.46 342.23,219.24 341.35,220.59C340.12,222.46 339.86,224.56 340.26,229.28C340.55,232.70 341.76,238.07 342.94,241.20C344.13,244.34 347.22,249.62 349.80,252.94C352.39,256.27 356.96,260.64 359.96,262.66C362.96,264.68 367.24,266.90 369.46,267.60C371.68,268.29 375.07,268.61 377.00,268.30zM373.80,258.00C373.08,257.99 371.09,257.13 369.36,256.08C367.63,255.02 365.94,253.71 365.60,253.16C365.26,252.61 366.30,251.87 367.91,251.52C369.52,251.17 372.63,250.85 374.83,250.82C377.02,250.79 379.31,251.07 379.91,251.44C380.51,251.81 381.00,252.75 381.00,253.53C381.00,254.31 379.67,255.64 378.05,256.47C376.43,257.31 374.51,258.00 373.80,258.00zM376.07,247.00C374.59,247.00 372.61,246.43 371.66,245.74C370.05,244.56 370.04,244.02 371.46,237.99C372.31,234.42 373.29,230.15 373.66,228.50C374.26,225.79 374.40,226.03 375.19,230.98C375.67,234.08 377.18,238.10 378.66,240.22C380.80,243.31 381.04,244.25 380.01,245.49C379.32,246.32 377.55,247.00 376.07,247.00zM356.31,230.97C355.86,230.95 354.44,230.05 353.14,228.97C351.84,227.89 349.72,227.00 348.42,227.00C347.13,227.00 345.63,226.17 345.08,225.15C344.40,223.88 344.45,222.95 345.25,222.15C345.92,221.48 349.63,221.00 354.16,221.00C360.99,221.00 362.06,221.25 363.03,223.06C363.85,224.58 363.84,225.49 363.00,226.50C362.37,227.25 360.54,228.16 358.92,228.52C357.31,228.87 356.24,229.58 356.55,230.08C356.86,230.59 356.75,230.99 356.31,230.97zM394.72,231.00C393.91,231.00 392.71,230.36 392.06,229.58C391.19,228.53 389.47,228.30 385.50,228.71C380.24,229.25 380.09,229.20 379.40,226.47C378.84,224.25 379.17,223.28 380.96,221.83C382.68,220.44 384.81,220.02 389.86,220.10C393.51,220.15 397.62,220.51 398.99,220.89C400.37,221.28 401.62,222.29 401.79,223.14C401.95,224.00 400.76,226.11 399.14,227.85C397.52,229.58 395.53,231.00 394.72,231.00z" />

</svg>